<?xml version="1.0" encoding="UTF-8"?>
<svg id="_图层_2" data-name="图层 2" xmlns="http://www.w3.org/2000/svg" viewBox="0 0 615.1 313.16">
  <defs>
    <style>
      .cls-1 {
        fill: #ef7e00;
      }

      .cls-1, .cls-2, .cls-3, .cls-4, .cls-5, .cls-6, .cls-7 {
        stroke-width: 0px;
      }

      .cls-2 {
        fill: none;
      }

      .cls-3 {
        fill: #5a84a2;
      }

      .cls-4 {
        fill: #fff;
      }

      .cls-5 {
        fill: #93a277;
      }

      .cls-6 {
        fill: #81a3bc;
      }

      .cls-7 {
        fill: #061331;
      }
    </style>
  </defs>
  <g id="Logo">
    <g id="Bird">
      <path class="cls-2" d="M151.15,99.79c7.98,9.32,15.36,18.06,16.55,19.56,1.02,1.28,4.07,5.25,7.32,9.5,1.89-3.56,4.31-6.26,6.95-7.47,1.55-.72,3.12-1.09,4.94-1.22-5.09-2.75-8.55-8.14-8.55-14.33,0-3.11.88-6,2.39-8.47.33-.59.69-1.19,1.12-1.81.84-1.22,2.06-2.36,3.38-3.39-2.16.88-4.41,1.76-6.35,2.42-5.16,1.77-13.66,3.57-22.19-3.14,23.67,1.29,40.34-14.47,40.34-14.47,1.28-.18,4.85,1.19,6.77,1.71,1.92.51,2.71.85,5.01.21,1.02-.29,2.44-.79,3.9-1.38,2.75-1.65,10.52-6.15,13.48-5.9,1.75.15,2.59.29,4.89.93,2.3.63,6.87.63,8.67,0,1.79-.64,1.15-.29,4.16-1.69,4-1.88,13.84-7.48,20.06-9.23.74-.21,1.48-.36,2.21-.49-12.26-8.66-27.21-13.77-43.36-13.77-33.59,0-62.02,22.01-71.68,52.4Z"/>
      <path class="cls-2" d="M249.65,97.71s-5.03,3.33-6.29,8.05c-2.36,8.79,5,13.31,8.72,14.84,2.6-.28,4.56-.49,6.34-.49,2.41,0,4.34.39,6.26,1.27,2.64,1.21,5.08,3.93,6.97,7.52,3.26-4.27,6.33-8.27,7.36-9.56,1.15-1.45,8.11-9.69,15.79-18.67-1.28-4.2-2.92-8.23-4.88-12.08-11.15-15.05-40.27,9.11-40.27,9.11Z"/>
      <path class="cls-3" d="M298.06,122.62c0,27.07-14.32,50.79-35.78,64.04,1.07-.58,2.32-1.3,3.48-2.07l2.6-2.05c-.68.69-1.61,1.39-2.6,2.05l-1.49,1.18-5.02,2.68c35.93-14.45,61.33-49.6,61.33-90.7,0-1.01-.04-2-.08-3-6.93,8.02-14.87,17.81-22.45,27.63,0,.08,0,.16,0,.24Z"/>
      <path class="cls-6" d="M182.6,186.16c-1.51-.95-2.98-1.96-4.41-3.02l1.82,1.44c.85.57,1.75,1.11,2.59,1.58Z"/>
      <path class="cls-3" d="M125.09,97.75c0,41.1,25.39,76.26,61.34,90.7-.43-.24-.86-.49-1.29-.74l-3.63-1.94-1.49-1.18c-.94-.63-1.81-1.28-2.47-1.93-18.17-13.73-29.92-35.5-29.92-60.03,0-.52.03-1.02.04-1.54-7.65-9.87-15.6-19.62-22.46-27.5-.06,1.38-.11,2.77-.11,4.16Z"/>
      <path class="cls-3" d="M130.2,76c3.05,3.05,12.35,13.75,20.95,23.79,9.67-30.38,38.1-52.4,71.68-52.4,16.15,0,31.1,5.11,43.36,13.77,5.68-.97,10.87.44,13.41,1.68,13.41,6.51,14.26,18.86,13.79,23.93-.38,4.08-1.36,5.88-1.36,5.88l-1.11-2.52c-.31-.55-.65-1.07-1-1.54,1.96,3.85,3.6,7.88,4.88,12.08,8.8-10.28,18.57-21.53,21.71-24.67,0,0,.46-.48,1.32-1.27C307.48,31.86,268.89,0,222.84,0s-84.2,31.48-94.82,73.98c1.43,1.24,2.18,2.03,2.18,2.03Z"/>
      <path class="cls-4" d="M239.5,116.85c-2.16-5.02-.06-9.81-.22-9.85-.15-.04-1.62,1.22-2.76,2.49-1.14,1.26-3.45,5.74-4.99,5.88-1.98.17-5.41-1.21-7.78-.61-2.08.52-5.01,2.56-6.19,3.35-1.19.79-3.71,2.37-6.23,3.36-.43.17-.8.31-1.15.44,3.71.18,8,.29,13.06.29,9.31,0,16.1-.39,21.24-.83-1.67-.57-3.79-1.75-4.98-4.51Z"/>
      <path class="cls-4" d="M223.5,128.96c-23.15,0-26.85-3.14-31.48-.92-6.05,2.89-12.11,22.88,0,32.94,10.66,8.86,31.58,8.58,31.58,8.58,0,0,20.86.28,31.53-8.58,12.11-10.06,6.06-30.05,0-32.94-4.64-2.22-8.45.92-31.62.92ZM246.89,156.52c-8.06,6.69-23.81,6.48-23.81,6.48,0,0-15.8.21-23.85-6.48-9.14-7.59-4.57-22.69,0-24.87,3.5-1.67,6.29.69,23.78.69s20.37-2.37,23.88-.69c4.57,2.18,9.15,17.28,0,24.87Z"/>
      <path class="cls-7" d="M246.89,131.65c-3.5-1.67-6.37.69-23.88.69s-20.28-2.37-23.78-.69c-4.57,2.18-9.14,17.28,0,24.87,8.05,6.69,23.85,6.48,23.85,6.48,0,0,15.75.21,23.81-6.48,9.15-7.59,4.57-22.69,0-24.87ZM223.07,157.3s-11.33.15-17.1-4.64c-6.55-5.44-3.28-16.27,0-17.84,2.51-1.19,4.51.5,17.04.5s14.61-1.7,17.12-.5c3.28,1.57,6.56,12.39,0,17.84-5.78,4.79-17.07,4.64-17.07,4.64Z"/>
      <path class="cls-1" d="M240.14,134.82c-2.52-1.2-4.58.5-17.12.5s-14.54-1.69-17.04-.5c-3.28,1.57-6.55,12.39,0,17.84,5.77,4.79,17.1,4.64,17.1,4.64,0,0,11.29.15,17.07-4.64,6.56-5.44,3.28-16.27,0-17.84Z"/>
      <path class="cls-4" d="M194.06,101.99c-1.57,1.59-2.54,3.77-2.54,6.18,0,4.87,3.95,8.83,8.82,8.83.22,0,.43-.02.64-.03,1.17-.04,2.37-.34,3.56-1.01.18-.1.4-.25.64-.41.07-.04.13-.09.2-.14,2.34-1.66,6.82-5.62,9-7.42,4.71-3.9,8.15-6.48,10.94-8.91,2.38-2.08,5.95-5.23,6.48-7.58.47-2.14.57-7.89,1.05-10.58.47-2.69,2.58-4.62,2.81-5.16.24-.54-2.26.96-2.26.96-29.31,16.37-36.69,22.09-39.33,25.29ZM224.27,90.15c.23.02.45.18-.23.55-1.58.85-3.42,3.04-3.98,5.93-.32,1.7-.54,2.79-1.31,3.56-.79.78-4.32,2.9-6.79,4.95-2.33,1.93-4.37,4.23-5.25,4.95-.99.81-1.65.68-2.47.4-.65-.22-1.78-.37-3.16-.08-1.38.31-3,1.85-3.41,2.93-.25.68-.58.58-.63.17-.02-.18-.63-4.16.69-7.5,1.79-4.54,5.63-10.3,12.47-13.23,7.6-3.25,13.88-2.65,14.07-2.64Z"/>
      <path class="cls-4" d="M235.3,91.22s21.87-19.63,41.61-19.5c0,0,7.58.04,12.92,6.28l.26.34c-.37-1.43-1.59-3.36-1.59-3.36-2.47-4.43-9.28-12.94-23.42-8.84-7.61,2.21-23.2,11.01-25.07,12.16-3.72,2.3-2.24,9.39-3.87,11.26-.93,1.06-.83,1.67-.83,1.67ZM243.68,77.92c1.97-1.03,3.99-1.06,4.5-.06.52.99-.66,2.63-2.63,3.66-1.97,1.03-3.99,1.05-4.51.07-.52-.99.66-2.63,2.63-3.66Z"/>
      <path class="cls-7" d="M197.73,106.03c-1.32,3.34-.71,7.32-.69,7.5.05.4.38.5.63-.17.41-1.08,2.03-2.63,3.41-2.93,1.38-.3,2.52-.14,3.16.08.82.28,1.49.4,2.47-.4.87-.72,2.92-3.02,5.25-4.95,2.48-2.05,6.01-4.17,6.79-4.95.77-.77.99-1.86,1.31-3.56.56-2.89,2.4-5.08,3.98-5.93.68-.37.46-.53.23-.55-.2,0-6.47-.6-14.07,2.64-6.85,2.93-10.68,8.69-12.47,13.23ZM213.19,93.78c.98-.09,2.05.15,3.08.99,1.03.84,1.49,1.99,1.56,2.66.08.67-.18,1.15-.74,1.58-.76.58-4.77,3.08-5.99,4.09-1.21,1.01-3.98,3.44-4.71,4.15-.78.74-1.27.75-2.32.39-1.19-.41-2.06-1.75-2.32-2.56-.31-.98-.37-1.79.24-3.1.6-1.31,3.09-3.75,4.54-4.85,2.01-1.53,5.68-3.27,6.66-3.35Z"/>
      <path class="cls-1" d="M206.54,97.13c-1.45,1.09-3.94,3.54-4.54,4.85-.61,1.3-.55,2.12-.24,3.1.26.81,1.13,2.15,2.32,2.56,1.05.36,1.54.35,2.32-.39.73-.71,3.5-3.14,4.71-4.15,1.22-1.01,5.23-3.51,5.99-4.09.56-.43.82-.91.74-1.58-.07-.67-.54-1.82-1.56-2.66-1.03-.84-2.1-1.08-3.08-.99-.98.08-4.65,1.82-6.66,3.35Z"/>
      <path class="cls-4" d="M264.64,76.89c-11.34,4.49-20.73,11.88-26.02,15.8-5.28,3.92-25.58,20.83-27.25,22.22-6.9,5.75-11.67,5.54-11.58,5.79.08.25,8.64.81,17.03-6.77,5.66-5.11,18.8-15.56,22.99-18.69,38.7-31.78,51.33-9.06,51.33-9.06,0,0-.08-.59-.5-1.52-6.92-15.51-26-7.77-26-7.77Z"/>
      <path class="cls-7" d="M245.56,81.52c1.97-1.03,3.15-2.67,2.63-3.66-.52-.99-2.53-.96-4.5.06-1.97,1.03-3.15,2.67-2.63,3.66.52.99,2.54.96,4.51-.07Z"/>
      <path class="cls-4" d="M224.82,177.07c-7.22,0-9.78-.76-9.86-.59-.11.23,4.14,1.28,6.92,5.29,2.99,4.32,2.75,7.04,2.98,7.13.23.09.09-3.93,3.14-7.67,3.39-4.15,7.26-4.96,7.22-5.07-.07-.21-4.81.91-10.41.91Z"/>
      <path class="cls-7" d="M317.83,74.74c-.86.79-1.32,1.27-1.32,1.27-3.14,3.14-12.91,14.39-21.71,24.67-7.69,8.98-14.64,17.22-15.79,18.67-1.03,1.29-4.09,5.28-7.36,9.56-1.89-3.59-4.33-6.31-6.97-7.52-1.92-.89-3.85-1.27-6.26-1.27-1.78,0-3.74.2-6.34.49-3.72-1.53-11.08-6.04-8.72-14.84,1.26-4.72,6.29-8.05,6.29-8.05,0,0,29.12-24.16,40.27-9.11.35.47.69.99,1,1.54l1.11,2.52s.98-1.81,1.36-5.88c.47-5.07-.38-17.42-13.79-23.93-2.54-1.23-7.73-2.64-13.41-1.68-.73.12-1.46.28-2.21.49-6.22,1.75-16.06,7.35-20.06,9.23-3.01,1.4-2.38,1.05-4.16,1.69-1.79.63-6.37.63-8.67,0-2.3-.64-3.13-.79-4.89-.93-2.96-.25-10.73,4.24-13.48,5.9-1.46.58-2.88,1.09-3.9,1.38-2.3.63-3.09.29-5.01-.21-1.92-.52-5.49-1.89-6.77-1.71,0,0-16.67,15.75-40.34,14.47,8.53,6.71,17.03,4.92,22.19,3.14,1.94-.67,4.19-1.54,6.35-2.42-1.32,1.03-2.54,2.17-3.38,3.39-.43.62-.79,1.22-1.12,1.81-1.51,2.47-2.39,5.36-2.39,8.47,0,6.19,3.46,11.58,8.55,14.33-1.81.12-3.38.5-4.94,1.22-2.64,1.21-5.06,3.91-6.95,7.47-3.25-4.25-6.29-8.22-7.32-9.5-1.19-1.5-8.57-10.24-16.55-19.56-8.6-10.04-17.9-20.74-20.95-23.79,0,0-.75-.79-2.18-2.03-6.37-5.51-26.39-20-55.48-14.32,28.14,5.2,40.56,20.93,40.56,20.93,3.22,3.08,7.41,7.6,12.1,13,6.86,7.88,14.81,17.63,22.46,27.5,10.79,13.92,20.96,28.07,26.6,37.51,1.69,3.32,4.04,6.24,7.01,8.61,5.62,4.48,13.1,7.17,20.22,8.78.52,2.58,1.57,5.81,3.72,9.09,3.9,5.94,14.45,12.77,25.76,9.07,12.57-4.11,15.81-12.99,16.65-18.75,6.36-1.65,12.79-4.22,17.78-8.19,2.32-1.85,4.26-4.04,5.8-6.49v.03c5.14-9.08,15.61-23.76,26.87-38.36,7.58-9.83,15.52-19.61,22.45-27.63,5.1-5.91,9.66-10.87,13.11-14.16,0,0,12.42-15.73,40.56-20.93-30.57-5.96-51.12,10.33-56.34,15.08ZM255.13,128.04c6.06,2.89,12.11,22.88,0,32.94-10.67,8.86-31.53,8.58-31.53,8.58,0,0-20.92.28-31.58-8.58-12.11-10.06-6.05-30.05,0-32.94,4.63-2.22,8.33.92,31.48.92s26.99-3.14,31.62-.92ZM244.48,121.36c-5.14.44-11.93.83-21.24.83-5.06,0-9.36-.12-13.06-.29.35-.13.72-.27,1.15-.44,2.53-.99,5.05-2.57,6.23-3.36,1.18-.79,4.11-2.83,6.19-3.35,2.37-.59,5.79.79,7.78.61,1.54-.14,3.84-4.62,4.99-5.88,1.14-1.26,2.61-2.52,2.76-2.49.16.04-1.93,4.83.22,9.85,1.19,2.76,3.3,3.94,4.98,4.51ZM291.15,86.18s-12.62-22.72-51.33,9.06c-4.19,3.13-17.33,13.59-22.99,18.69-8.39,7.58-16.95,7.03-17.03,6.77-.08-.25,4.68-.04,11.58-5.79,1.67-1.39,21.97-18.31,27.25-22.22,5.28-3.92,14.68-11.3,26.02-15.8,0,0,19.09-7.73,26,7.77.41.93.5,1.52.5,1.52ZM240,78.29c1.87-1.15,17.46-9.95,25.07-12.16,14.14-4.1,20.95,4.41,23.42,8.84,0,0,1.22,1.93,1.59,3.36l-.26-.34c-5.34-6.23-12.92-6.28-12.92-6.28-19.73-.12-41.61,19.5-41.61,19.5,0,0-.1-.61.83-1.67,1.62-1.86.14-8.96,3.87-11.26ZM233.39,76.7s2.5-1.49,2.26-.96c-.23.54-2.34,2.47-2.81,5.16-.48,2.69-.57,8.44-1.05,10.58-.53,2.35-4.1,5.5-6.48,7.58-2.79,2.43-6.22,5.01-10.94,8.91-2.18,1.81-6.66,5.76-9,7.42-.07.05-.13.09-.2.14-.24.16-.46.31-.64.41-1.19.67-2.39.97-3.56,1.01-.21.02-.43.03-.64.03-4.87,0-8.82-3.95-8.82-8.83,0-2.41.97-4.59,2.54-6.18,2.65-3.2,10.03-8.92,39.33-25.29ZM228.01,181.23c-3.06,3.74-2.92,7.76-3.14,7.67-.23-.09,0-2.81-2.98-7.13-2.77-4-7.03-5.06-6.92-5.29.08-.17,2.64.59,9.86.59,5.6,0,10.34-1.13,10.41-.91.03.1-3.83.91-7.22,5.07Z"/>
      <path class="cls-5" d="M265.77,184.59c.99-.66,1.92-1.36,2.6-2.05l-2.6,2.05Z"/>
      <path class="cls-5" d="M265.77,184.59c-1.16.77-2.41,1.49-3.48,2.07-1.35.73-2.41,1.24-2.58,1.32-.44.22-.45.46-.45.46l5.02-2.68,1.49-1.18Z"/>
      <path class="cls-5" d="M178.19,183.15l-.78-.61s.08.08.12.11c.67.65,1.54,1.31,2.47,1.93l-1.82-1.44Z"/>
      <path class="cls-5" d="M181.51,185.76l3.63,1.94,1.39.74s-.02-.25-.45-.46c-.21-.11-1.71-.82-3.48-1.82-.84-.47-1.74-1.01-2.59-1.58l1.49,1.18Z"/>
    </g>
    <g id="Text">
      <g>
        <path class="cls-7" d="M18.18,226.97H4.04v10.99h13.61v3.7H4.04v14.78H0v-33.16h18.18v3.7Z"/>
        <path class="cls-7" d="M23.39,223.03h4.76v4.52h-4.76v-4.52ZM23.82,233.14h3.84v23.29h-3.84v-23.29Z"/>
        <path class="cls-7" d="M46.43,236.06c-.58-.1-1.22-.24-2.24-.24-3.35,0-5.98,2.38-5.98,8.26v12.35h-3.84v-23.29h3.84v2.92h.1c.78-1.56,3.11-3.7,6.17-3.7.83,0,1.41.05,1.95.15v3.55Z"/>
        <path class="cls-7" d="M60.97,238.73c-.39-1.8-1.9-3.11-3.74-3.11-2.38,0-3.7,1.41-3.7,3.11,0,1.46.68,2.67,4.91,4.04,5.15,1.65,6.76,4.33,6.76,7.44,0,4.28-3.11,7.05-7.87,7.05-5.15,0-7.73-3.01-8.46-7.05h3.89c.44,2.04,1.85,3.74,4.71,3.74,2.58,0,3.89-1.51,3.89-3.45s-.88-3.31-5.2-4.72c-4.37-1.41-6.42-3.6-6.42-7.1s2.53-6.32,7.29-6.32,7.05,2.92,7.83,6.37h-3.89Z"/>
        <path class="cls-7" d="M67.92,233.14h3.06v-7.44h3.84v7.44h6.22v3.21h-6.22v12.3c0,3.79,1.17,4.81,3.65,4.81.97,0,1.94-.15,2.82-.39v3.16c-1.02.34-2.24.49-3.6.49-5.64,0-6.71-3.79-6.71-8.22v-12.15h-3.06v-3.21Z"/>
        <path class="cls-7" d="M102.1,229.64c.05,1.8.1,5.2.1,6.95v19.83h-3.79v-33.16h3.79l10.79,15.95c3.84,5.69,5.93,8.9,7,10.89h.1c-.1-1.9-.1-5.3-.1-7.05v-19.79h3.79v33.16h-3.79l-10.79-15.95c-4.47-6.61-5.93-8.85-7-10.84h-.1Z"/>
        <path class="cls-7" d="M153.54,256.43h-3.84v-3.11h-.1c-1.7,2.04-4.57,3.94-8.51,3.94-6.32,0-11.96-4.91-11.96-12.49s5.25-12.4,12.2-12.4c4.23,0,6.71,2.24,8.31,4.13h.05v-3.36h3.84v23.29ZM141.63,253.85c4.37,0,8.41-3.69,8.41-8.94,0-5.54-3.74-9.19-8.31-9.19-5.83,0-8.61,4.57-8.61,9.04s2.77,9.09,8.51,9.09Z"/>
        <path class="cls-7" d="M157.73,233.14h3.06v-7.44h3.84v7.44h6.22v3.21h-6.22v12.3c0,3.79,1.17,4.81,3.65,4.81.97,0,1.94-.15,2.82-.39v3.16c-1.02.34-2.24.49-3.6.49-5.64,0-6.71-3.79-6.71-8.22v-12.15h-3.06v-3.21Z"/>
        <path class="cls-7" d="M175.38,223.03h4.76v4.52h-4.76v-4.52ZM175.81,233.14h3.84v23.29h-3.84v-23.29Z"/>
        <path class="cls-7" d="M197.21,232.36c7.24,0,12.45,5.35,12.45,12.4s-5.25,12.49-12.45,12.49-12.45-5.45-12.45-12.49,5.44-12.4,12.45-12.4ZM197.21,253.75c4.91,0,8.46-3.89,8.46-8.99s-3.35-8.95-8.46-8.95-8.46,3.79-8.46,8.95,3.99,8.99,8.46,8.99Z"/>
        <path class="cls-7" d="M214.76,233.14h3.84v2.92h.1c2.14-2.77,4.81-3.7,7.34-3.7,4.23,0,9.19,2.62,9.19,10.5v13.56h-3.84v-13.32c0-4.72-2.29-7.29-5.93-7.29-4.18,0-6.85,2.82-6.85,8.21v12.4h-3.84v-23.29Z"/>
        <path class="cls-7" d="M252.59,238.73c-.39-1.8-1.89-3.11-3.74-3.11-2.38,0-3.7,1.41-3.7,3.11,0,1.46.68,2.67,4.91,4.04,5.15,1.65,6.76,4.33,6.76,7.44,0,4.28-3.11,7.05-7.87,7.05-5.15,0-7.73-3.01-8.46-7.05h3.89c.44,2.04,1.85,3.74,4.71,3.74,2.58,0,3.89-1.51,3.89-3.45s-.88-3.31-5.2-4.72c-4.37-1.41-6.42-3.6-6.42-7.1s2.53-6.32,7.29-6.32,7.05,2.92,7.83,6.37h-3.89Z"/>
        <path class="cls-7" d="M296.98,241.11h-18.23v15.31h-4.04v-33.16h4.04v14.15h18.23v-14.15h4.04v33.16h-4.04v-15.31Z"/>
        <path class="cls-7" d="M329.46,244.47c0,.44-.05,1.17-.1,1.41h-19.01c0,4.23,3.89,7.97,8.27,7.97,2.77,0,4.47-1.02,5.98-2.82h4.42c-1.55,2.92-4.81,6.22-10.3,6.22-7.39,0-12.35-5.54-12.35-12.79,0-6.42,4.52-12.1,11.57-12.1,8.46.05,11.52,7,11.52,12.1ZM310.4,242.67h15.02c-.39-3.65-3.26-6.95-7.49-6.95s-7.19,3.4-7.53,6.95Z"/>
        <path class="cls-7" d="M357.36,256.43h-3.84v-3.11h-.1c-1.7,2.04-4.57,3.94-8.51,3.94-6.32,0-11.96-4.91-11.96-12.49s5.25-12.4,12.2-12.4c4.23,0,6.71,2.24,8.31,4.13h.05v-3.36h3.84v23.29ZM345.45,253.85c4.38,0,8.41-3.69,8.41-8.94,0-5.54-3.74-9.19-8.31-9.19-5.83,0-8.61,4.57-8.61,9.04s2.77,9.09,8.51,9.09Z"/>
        <path class="cls-7" d="M364.08,221.42h3.84v35h-3.84v-35Z"/>
        <path class="cls-7" d="M372.1,233.14h3.06v-7.44h3.84v7.44h6.22v3.21h-6.22v12.3c0,3.79,1.17,4.81,3.65,4.81.97,0,1.94-.15,2.82-.39v3.16c-1.02.34-2.24.49-3.6.49-5.64,0-6.71-3.79-6.71-8.22v-12.15h-3.06v-3.21Z"/>
        <path class="cls-7" d="M389.7,221.42h3.84v14.63h.1c2.19-2.77,4.81-3.7,7.34-3.7,4.23,0,9.19,2.58,9.19,10.5v13.56h-3.84v-13.37c0-4.67-2.29-7.24-5.93-7.24-4.18,0-6.86,2.77-6.86,8.17v12.45h-3.84v-35Z"/>
        <path class="cls-7" d="M439,223.27h3.6l13.13,33.16h-4.42l-3.4-8.94h-14.68l-3.45,8.94h-4.28l13.52-33.16ZM434.58,243.89h11.96l-3.5-9.33c-.68-1.8-1.7-4.76-2.28-6.71h-.19c-.63,2.04-1.65,4.86-2.38,6.76l-3.6,9.29Z"/>
        <path class="cls-7" d="M478.23,256.43h-3.84v-2.87h-.1c-2.04,2.77-4.62,3.7-7.05,3.7-4.08,0-8.85-2.62-8.85-10.5v-13.61h3.84v13.32c0,4.71,2.23,7.29,5.64,7.29,3.98,0,6.51-2.77,6.51-8.17v-12.45h3.84v23.29Z"/>
        <path class="cls-7" d="M482.42,233.14h3.06v-7.44h3.84v7.44h6.22v3.21h-6.22v12.3c0,3.79,1.17,4.81,3.64,4.81.97,0,1.94-.15,2.82-.39v3.16c-1.02.34-2.24.49-3.6.49-5.64,0-6.71-3.79-6.71-8.22v-12.15h-3.06v-3.21Z"/>
        <path class="cls-7" d="M500.02,221.42h3.84v14.63h.1c2.19-2.77,4.81-3.7,7.34-3.7,4.23,0,9.19,2.58,9.19,10.5v13.56h-3.84v-13.37c0-4.67-2.29-7.24-5.93-7.24-4.18,0-6.85,2.77-6.85,8.17v12.45h-3.84v-35Z"/>
        <path class="cls-7" d="M537.51,232.36c7.24,0,12.44,5.35,12.44,12.4s-5.25,12.49-12.44,12.49-12.45-5.45-12.45-12.49,5.44-12.4,12.45-12.4ZM537.51,253.75c4.91,0,8.46-3.89,8.46-8.99s-3.35-8.95-8.46-8.95-8.46,3.79-8.46,8.95,3.99,8.99,8.46,8.99Z"/>
        <path class="cls-7" d="M567.12,236.06c-.58-.1-1.21-.24-2.24-.24-3.35,0-5.98,2.38-5.98,8.26v12.35h-3.84v-23.29h3.84v2.92h.1c.78-1.56,3.11-3.7,6.18-3.7.83,0,1.41.05,1.94.15v3.55Z"/>
        <path class="cls-7" d="M571.01,223.03h4.76v4.52h-4.76v-4.52ZM571.45,233.14h3.84v23.29h-3.84v-23.29Z"/>
        <path class="cls-7" d="M579.47,233.14h3.06v-7.44h3.84v7.44h6.22v3.21h-6.22v12.3c0,3.79,1.17,4.81,3.65,4.81.97,0,1.94-.15,2.82-.39v3.16c-1.02.34-2.24.49-3.6.49-5.64,0-6.71-3.79-6.71-8.22v-12.15h-3.06v-3.21Z"/>
        <path class="cls-7" d="M602.27,267.85h-3.7l4.23-11.42-8.56-23.29h3.94l4.91,13.56c.44,1.12,1.31,3.65,1.56,4.91h.1c.54-1.65,1.02-3.21,1.6-4.91l4.86-13.56h3.89l-12.83,34.71Z"/>
      </g>
      <g>
        <path class="cls-7" d="M239.25,291.76h-14.03v11.78h-3.11v-25.51h3.11v10.88h14.03v-10.88h3.1v25.51h-3.1v-11.78Z"/>
        <path class="cls-7" d="M264.23,294.34c0,.34-.04.9-.07,1.08h-14.63c0,3.26,2.99,6.14,6.36,6.14,2.13,0,3.44-.79,4.6-2.17h3.4c-1.2,2.24-3.7,4.79-7.93,4.79-5.69,0-9.5-4.26-9.5-9.84,0-4.94,3.48-9.31,8.9-9.31,6.51.04,8.87,5.39,8.87,9.31ZM249.56,292.96h11.56c-.3-2.8-2.51-5.35-5.76-5.35s-5.54,2.62-5.8,5.35Z"/>
        <path class="cls-7" d="M285.7,303.54h-2.96v-2.39h-.07c-1.31,1.57-3.52,3.03-6.55,3.03-4.86,0-9.2-3.78-9.2-9.61s4.04-9.54,9.39-9.54c3.25,0,5.16,1.72,6.4,3.18h.04v-2.58h2.96v17.92ZM276.53,301.56c3.37,0,6.47-2.84,6.47-6.88,0-4.27-2.88-7.07-6.4-7.07-4.49,0-6.62,3.52-6.62,6.96s2.13,7,6.54,7Z"/>
        <path class="cls-7" d="M290.86,276.61h2.96v26.93h-2.96v-26.93Z"/>
        <path class="cls-7" d="M297.03,285.62h2.36v-5.72h2.95v5.72h4.79v2.47h-4.79v9.46c0,2.92.9,3.7,2.8,3.7.75,0,1.5-.11,2.17-.3v2.43c-.79.26-1.72.37-2.77.37-4.34,0-5.16-2.92-5.16-6.32v-9.35h-2.36v-2.47Z"/>
        <path class="cls-7" d="M310.57,276.61h2.96v11.26h.07c1.68-2.13,3.7-2.84,5.65-2.84,3.25,0,7.07,1.98,7.07,8.08v10.44h-2.96v-10.29c0-3.59-1.76-5.57-4.56-5.57-3.22,0-5.27,2.13-5.27,6.28v9.58h-2.96v-26.93Z"/>
        <path class="cls-7" d="M338.47,285.62h2.36v-5.72h2.96v5.72h4.79v2.47h-4.79v9.46c0,2.92.9,3.7,2.8,3.7.75,0,1.5-.11,2.17-.3v2.43c-.78.26-1.72.37-2.77.37-4.34,0-5.16-2.92-5.16-6.32v-9.35h-2.36v-2.47Z"/>
        <path class="cls-7" d="M352.01,276.61h2.95v11.26h.08c1.68-2.13,3.7-2.84,5.65-2.84,3.26,0,7.07,1.98,7.07,8.08v10.44h-2.95v-10.29c0-3.59-1.76-5.57-4.57-5.57-3.21,0-5.27,2.13-5.27,6.28v9.58h-2.95v-26.93Z"/>
        <path class="cls-7" d="M381.78,287.87c-.45-.07-.94-.19-1.72-.19-2.58,0-4.6,1.83-4.6,6.36v9.5h-2.95v-17.92h2.95v2.25h.08c.6-1.2,2.39-2.84,4.75-2.84.63,0,1.08.04,1.5.11v2.73Z"/>
        <path class="cls-7" d="M392.51,285.03c5.57,0,9.58,4.11,9.58,9.54s-4.04,9.61-9.58,9.61-9.58-4.19-9.58-9.61,4.19-9.54,9.58-9.54ZM392.51,301.49c3.78,0,6.51-2.99,6.51-6.92s-2.58-6.88-6.51-6.88-6.51,2.92-6.51,6.88,3.07,6.92,6.51,6.92Z"/>
        <path class="cls-7" d="M421.05,303.54h-2.96v-2.21h-.07c-1.57,2.13-3.55,2.84-5.42,2.84-3.14,0-6.81-2.02-6.81-8.08v-10.47h2.96v10.25c0,3.63,1.72,5.61,4.34,5.61,3.07,0,5.01-2.13,5.01-6.29v-9.58h2.96v17.92Z"/>
        <path class="cls-7" d="M443.75,302.98c0,6.47-2.99,10.18-9.24,10.18-4.97,0-8.08-2.77-8.83-6.85h2.99c.63,2.39,2.28,4.26,5.95,4.26,4,0,6.17-2.62,6.17-7.22v-2.28h-.07c-1.31,1.61-3.52,3.11-6.55,3.11-4.9,0-9.2-3.78-9.2-9.61s3.93-9.54,9.17-9.54c3.4,0,5.46,1.79,6.58,3.18h.07v-2.58h2.96v17.36ZM434.55,301.56c3.48,0,6.51-2.84,6.51-6.88,0-4.27-2.84-7.07-6.44-7.07-4.38,0-6.62,3.52-6.62,6.96s2.24,7,6.54,7Z"/>
        <path class="cls-7" d="M448.91,276.61h2.95v11.26h.08c1.68-2.13,3.7-2.84,5.65-2.84,3.26,0,7.07,1.98,7.07,8.08v10.44h-2.95v-10.29c0-3.59-1.76-5.57-4.57-5.57-3.21,0-5.27,2.13-5.27,6.28v9.58h-2.95v-26.93Z"/>
        <path class="cls-7" d="M489.9,292.96c-.34-1.42-.56-2.58-.78-3.89h-.15c-.19,1.31-.45,2.88-.9,4.64l-2.39,9.84h-3.85l-4.71-17.92h2.99l2.81,11.82c.41,1.8.52,2.36.75,3.55h.15c.22-1.16.52-2.36.86-3.74l2.81-11.64h3.22l2.92,11.79c.37,1.53.56,2.47.79,3.59h.11c.19-1.38.49-2.81.67-3.55l2.88-11.82h2.96l-4.71,17.92h-3.78l-2.62-10.59Z"/>
        <path class="cls-7" d="M520.73,294.34c0,.34-.04.9-.08,1.08h-14.62c0,3.26,2.99,6.14,6.36,6.14,2.13,0,3.44-.79,4.6-2.17h3.4c-1.2,2.24-3.7,4.79-7.93,4.79-5.69,0-9.5-4.26-9.5-9.84,0-4.94,3.48-9.31,8.9-9.31,6.51.04,8.87,5.39,8.87,9.31ZM506.06,292.96h11.56c-.3-2.8-2.51-5.35-5.76-5.35s-5.54,2.62-5.8,5.35Z"/>
        <path class="cls-7" d="M524.65,276.61h2.96v26.93h-2.96v-26.93Z"/>
        <path class="cls-7" d="M532.77,276.61h2.96v26.93h-2.96v-26.93Z"/>
        <path class="cls-7" d="M540.88,285.62h2.95v2.25h.08c1.64-2.13,3.7-2.84,5.65-2.84,3.26,0,7.07,2.02,7.07,8.08v10.44h-2.95v-10.25c0-3.63-1.76-5.61-4.57-5.61-3.21,0-5.27,2.17-5.27,6.32v9.54h-2.95v-17.92Z"/>
        <path class="cls-7" d="M578.1,294.34c0,.34-.04.9-.07,1.08h-14.63c0,3.26,2.99,6.14,6.36,6.14,2.13,0,3.44-.79,4.6-2.17h3.4c-1.2,2.24-3.7,4.79-7.93,4.79-5.69,0-9.5-4.26-9.5-9.84,0-4.94,3.48-9.31,8.9-9.31,6.51.04,8.87,5.39,8.87,9.31ZM563.43,292.96h11.56c-.3-2.8-2.51-5.35-5.76-5.35s-5.54,2.62-5.8,5.35Z"/>
        <path class="cls-7" d="M590.44,289.93c-.3-1.39-1.46-2.39-2.88-2.39-1.83,0-2.84,1.08-2.84,2.39,0,1.12.52,2.06,3.78,3.1,3.96,1.27,5.2,3.33,5.2,5.72,0,3.29-2.39,5.42-6.06,5.42-3.97,0-5.95-2.32-6.51-5.42h2.99c.34,1.57,1.42,2.88,3.63,2.88,1.98,0,2.99-1.16,2.99-2.66s-.67-2.54-4-3.63c-3.37-1.08-4.94-2.77-4.94-5.46s1.95-4.86,5.61-4.86,5.42,2.24,6.02,4.9h-2.99Z"/>
        <path class="cls-7" d="M606.33,289.93c-.3-1.39-1.46-2.39-2.88-2.39-1.83,0-2.84,1.08-2.84,2.39,0,1.12.52,2.06,3.78,3.1,3.96,1.27,5.2,3.33,5.2,5.72,0,3.29-2.39,5.42-6.06,5.42-3.97,0-5.95-2.32-6.51-5.42h2.99c.34,1.57,1.42,2.88,3.63,2.88,1.98,0,2.99-1.16,2.99-2.66s-.67-2.54-4-3.63c-3.37-1.08-4.94-2.77-4.94-5.46s1.94-4.86,5.61-4.86,5.42,2.24,6.02,4.9h-2.99Z"/>
      </g>
    </g>
  </g>
</svg>