<!--?xml version="1.0" standalone="no"?-->
              <svg id="sw-js-blob-svg" viewBox="0 0 100 100" xmlns="http://www.w3.org/2000/svg" version="1.1">
                    <defs> 
                        <linearGradient id="sw-gradient" x1="0" x2="1" y1="1" y2="0">
                            <stop id="stop1" stop-color="rgba(248, 117, 55, 1)" offset="0%"></stop>
                            <stop id="stop2" stop-color="rgba(251, 168, 31, 1)" offset="100%"></stop>
                        </linearGradient>
                    </defs>
                <path fill="url(#sw-gradient)" d="M20,-26.3C25.3,-19.4,28.5,-12.5,30.9,-4.6C33.2,3.2,34.7,12.1,31,17.3C27.3,22.6,18.4,24.3,10.4,26.1C2.4,28,-4.7,30.1,-12.2,29.2C-19.7,28.3,-27.7,24.4,-30.7,18.2C-33.6,12,-31.6,3.4,-30.1,-5.4C-28.7,-14.2,-27.8,-23.1,-22.9,-30.1C-17.9,-37.1,-9,-42,-0.8,-41.1C7.4,-40.1,14.7,-33.2,20,-26.3Z" width="100%" height="100%" transform="translate(50 50)" stroke-width="0" style="transition: 0.3s;" stroke="url(#sw-gradient)"></path>
              </svg>