<svg width="251" height="83" viewBox="0 0 251 83" fill="none" xmlns="http://www.w3.org/2000/svg">
<rect x="0.5" width="250" height="65" rx="32.5" fill="#F9F9F9"/>
<path d="M33.452 27.216C32.78 27.216 32.172 27.36 31.628 27.648C31.084 27.936 30.62 28.352 30.236 28.896C29.868 29.44 29.588 30.096 29.396 30.864C29.204 31.632 29.108 32.496 29.108 33.456C29.108 34.752 29.268 35.864 29.588 36.792C29.908 37.704 30.396 38.408 31.052 38.904C31.708 39.4 32.532 39.648 33.524 39.648C34.212 39.648 34.884 39.576 35.54 39.432C36.196 39.272 36.86 39.064 37.532 38.808V41.424C36.876 41.712 36.196 41.92 35.492 42.048C34.804 42.176 34.028 42.24 33.164 42.24C31.484 42.24 30.1 41.88 29.012 41.16C27.924 40.424 27.108 39.4 26.564 38.088C26.036 36.76 25.772 35.208 25.772 33.432C25.772 32.136 25.94 30.952 26.276 29.88C26.612 28.808 27.108 27.88 27.764 27.096C28.42 26.312 29.228 25.704 30.188 25.272C31.148 24.84 32.244 24.624 33.476 24.624C34.292 24.624 35.116 24.728 35.948 24.936C36.796 25.128 37.54 25.4 38.18 25.752L37.1 28.272C36.54 28 35.956 27.76 35.348 27.552C34.756 27.328 34.124 27.216 33.452 27.216ZM51.8026 35.472C51.8026 36.56 51.6666 37.52 51.3946 38.352C51.1226 39.184 50.7226 39.896 50.1946 40.488C49.6826 41.064 49.0586 41.504 48.3226 41.808C47.5866 42.096 46.7626 42.24 45.8506 42.24C45.0026 42.24 44.2106 42.096 43.4746 41.808C42.7546 41.504 42.1306 41.064 41.6026 40.488C41.0906 39.896 40.6906 39.184 40.4026 38.352C40.1146 37.52 39.9706 36.56 39.9706 35.472C39.9706 34.032 40.2026 32.816 40.6666 31.824C41.1466 30.816 41.8346 30.056 42.7306 29.544C43.6266 29.016 44.6906 28.752 45.9226 28.752C47.0746 28.752 48.0906 29.016 48.9706 29.544C49.8506 30.056 50.5386 30.816 51.0346 31.824C51.5466 32.816 51.8026 34.032 51.8026 35.472ZM43.2106 35.472C43.2106 36.384 43.3066 37.168 43.4986 37.824C43.6906 38.464 43.9786 38.952 44.3626 39.288C44.7626 39.624 45.2746 39.792 45.8986 39.792C46.5226 39.792 47.0266 39.624 47.4106 39.288C47.8106 38.952 48.0986 38.464 48.2746 37.824C48.4666 37.168 48.5626 36.384 48.5626 35.472C48.5626 34.544 48.4666 33.768 48.2746 33.144C48.0826 32.504 47.7866 32.024 47.3866 31.704C47.0026 31.368 46.4986 31.2 45.8746 31.2C44.9306 31.2 44.2506 31.568 43.8346 32.304C43.4186 33.04 43.2106 34.096 43.2106 35.472ZM65.7234 28.992V42H63.2754L62.8674 40.32H62.6994C62.4434 40.768 62.1154 41.136 61.7154 41.424C61.3154 41.696 60.8754 41.896 60.3954 42.024C59.9154 42.168 59.4194 42.24 58.9074 42.24C58.0114 42.24 57.2354 42.072 56.5794 41.736C55.9234 41.4 55.4114 40.888 55.0434 40.2C54.6914 39.496 54.5154 38.592 54.5154 37.488V28.992H57.7074V36.888C57.7074 37.848 57.8674 38.576 58.1874 39.072C58.5234 39.552 59.0514 39.792 59.7714 39.792C60.4914 39.792 61.0514 39.624 61.4514 39.288C61.8674 38.936 62.1554 38.432 62.3154 37.776C62.4754 37.12 62.5554 36.312 62.5554 35.352V28.992H65.7234ZM76.0524 28.752C77.4124 28.752 78.4844 29.128 79.2684 29.88C80.0524 30.632 80.4444 31.848 80.4444 33.528V42H77.2524V34.128C77.2524 33.152 77.0844 32.424 76.7484 31.944C76.4124 31.448 75.8844 31.2 75.1644 31.2C74.0924 31.2 73.3644 31.584 72.9804 32.352C72.5964 33.104 72.4044 34.2 72.4044 35.64V42H69.2124V28.992H71.6604L72.1164 30.696H72.2364C72.5244 30.248 72.8604 29.88 73.2444 29.592C73.6284 29.304 74.0604 29.096 74.5404 28.968C75.0204 28.824 75.5244 28.752 76.0524 28.752ZM92.4054 38.232C92.4054 39.096 92.2134 39.832 91.8294 40.44C91.4454 41.032 90.8774 41.48 90.1254 41.784C89.3734 42.088 88.4294 42.24 87.2934 42.24C86.4294 42.24 85.6774 42.176 85.0374 42.048C84.3974 41.92 83.7814 41.72 83.1894 41.448V38.88C83.8294 39.184 84.5174 39.44 85.2534 39.648C86.0054 39.856 86.6854 39.96 87.2934 39.96C88.0134 39.96 88.5334 39.832 88.8534 39.576C89.1734 39.32 89.3334 38.976 89.3334 38.544C89.3334 38.288 89.2614 38.056 89.1174 37.848C88.9894 37.64 88.7174 37.424 88.3014 37.2C87.9014 36.96 87.3174 36.664 86.5494 36.312C85.7974 35.976 85.1734 35.64 84.6774 35.304C84.1814 34.968 83.8054 34.568 83.5494 34.104C83.2934 33.624 83.1654 33.024 83.1654 32.304C83.1654 31.136 83.6054 30.256 84.4854 29.664C85.3814 29.056 86.5494 28.752 87.9894 28.752C88.7734 28.752 89.5014 28.832 90.1734 28.992C90.8614 29.136 91.5494 29.376 92.2374 29.712L91.3014 31.944C90.9174 31.768 90.5254 31.616 90.1254 31.488C89.7414 31.344 89.3654 31.232 88.9974 31.152C88.6454 31.072 88.2934 31.032 87.9414 31.032C87.3814 31.032 86.9574 31.136 86.6694 31.344C86.3814 31.536 86.2374 31.816 86.2374 32.184C86.2374 32.44 86.3094 32.672 86.4534 32.88C86.5974 33.072 86.8694 33.272 87.2694 33.48C87.6694 33.688 88.2374 33.952 88.9734 34.272C89.7094 34.56 90.3334 34.872 90.8454 35.208C91.3574 35.528 91.7414 35.928 91.9974 36.408C92.2694 36.888 92.4054 37.496 92.4054 38.232ZM100.176 28.752C101.296 28.752 102.256 28.992 103.056 29.472C103.872 29.936 104.504 30.608 104.952 31.488C105.4 32.352 105.624 33.408 105.624 34.656V36.192H97.6559C97.6879 37.376 97.9759 38.296 98.5199 38.952C99.0799 39.592 99.8639 39.912 100.872 39.912C101.672 39.912 102.384 39.832 103.008 39.672C103.632 39.496 104.28 39.248 104.952 38.928V41.352C104.344 41.656 103.712 41.88 103.056 42.024C102.4 42.168 101.592 42.24 100.632 42.24C99.4159 42.24 98.3359 42 97.3919 41.52C96.4639 41.024 95.7359 40.28 95.2079 39.288C94.6799 38.296 94.4159 37.064 94.4159 35.592C94.4159 34.104 94.6559 32.856 95.1359 31.848C95.6159 30.824 96.2879 30.056 97.1519 29.544C98.0319 29.016 99.0399 28.752 100.176 28.752ZM100.224 30.984C99.5039 30.984 98.9199 31.248 98.4719 31.776C98.0399 32.288 97.7839 33.056 97.7039 34.08H102.6C102.6 33.472 102.512 32.936 102.336 32.472C102.16 32.008 101.896 31.648 101.544 31.392C101.208 31.12 100.768 30.984 100.224 30.984ZM111.545 42H108.353V23.76H111.545V42ZM118.201 42H115.009V23.76H118.201V42ZM124.858 28.992V42H121.69V28.992H124.858ZM123.298 23.976C123.762 23.976 124.162 24.096 124.498 24.336C124.834 24.56 125.002 24.968 125.002 25.56C125.002 26.136 124.834 26.552 124.498 26.808C124.162 27.048 123.762 27.168 123.298 27.168C122.802 27.168 122.386 27.048 122.05 26.808C121.714 26.552 121.546 26.136 121.546 25.56C121.546 24.968 121.714 24.56 122.05 24.336C122.386 24.096 122.802 23.976 123.298 23.976ZM135.162 28.752C136.522 28.752 137.594 29.128 138.378 29.88C139.162 30.632 139.554 31.848 139.554 33.528V42H136.362V34.128C136.362 33.152 136.194 32.424 135.858 31.944C135.522 31.448 134.994 31.2 134.274 31.2C133.202 31.2 132.474 31.584 132.09 32.352C131.706 33.104 131.514 34.2 131.514 35.64V42H128.322V28.992H130.77L131.226 30.696H131.346C131.634 30.248 131.97 29.88 132.354 29.592C132.738 29.304 133.17 29.096 133.65 28.968C134.13 28.824 134.634 28.752 135.162 28.752ZM147.051 28.752C147.851 28.752 148.547 28.912 149.139 29.232C149.731 29.552 150.227 30.032 150.627 30.672H150.723L151.011 28.992H153.699V42.096C153.699 43.328 153.475 44.36 153.027 45.192C152.579 46.04 151.907 46.68 151.011 47.112C150.131 47.544 149.011 47.76 147.651 47.76C146.739 47.76 145.907 47.696 145.155 47.568C144.419 47.456 143.715 47.256 143.043 46.968V44.472C143.507 44.68 143.979 44.856 144.459 45C144.955 45.16 145.467 45.28 145.995 45.36C146.523 45.44 147.083 45.48 147.675 45.48C148.603 45.48 149.307 45.2 149.787 44.64C150.283 44.08 150.531 43.28 150.531 42.24V41.904C150.531 41.664 150.539 41.384 150.555 41.064C150.587 40.744 150.611 40.488 150.627 40.296H150.531C150.147 40.968 149.667 41.464 149.091 41.784C148.515 42.088 147.819 42.24 147.003 42.24C145.547 42.24 144.395 41.648 143.547 40.464C142.715 39.28 142.299 37.632 142.299 35.52C142.299 34.096 142.491 32.88 142.875 31.872C143.259 30.864 143.803 30.096 144.507 29.568C145.227 29.024 146.075 28.752 147.051 28.752ZM148.011 31.224C147.467 31.224 147.011 31.392 146.643 31.728C146.291 32.048 146.019 32.528 145.827 33.168C145.635 33.808 145.539 34.608 145.539 35.568C145.539 36.976 145.747 38.04 146.163 38.76C146.579 39.48 147.203 39.84 148.035 39.84C148.515 39.84 148.923 39.776 149.259 39.648C149.595 39.504 149.867 39.28 150.075 38.976C150.283 38.656 150.443 38.256 150.555 37.776C150.667 37.28 150.723 36.688 150.723 36V35.544C150.723 34.504 150.627 33.672 150.435 33.048C150.259 32.408 149.971 31.944 149.571 31.656C149.171 31.368 148.651 31.224 148.011 31.224ZM168.073 24.864C169.497 24.864 170.673 25.048 171.601 25.416C172.529 25.784 173.217 26.344 173.665 27.096C174.113 27.832 174.337 28.768 174.337 29.904C174.337 30.736 174.201 31.448 173.929 32.04C173.657 32.632 173.289 33.128 172.825 33.528C172.377 33.912 171.889 34.224 171.361 34.464L175.969 42H172.321L168.601 35.232H166.513V42H163.297V24.864H168.073ZM167.929 27.432H166.513V32.712H167.977C168.665 32.712 169.233 32.608 169.681 32.4C170.145 32.192 170.489 31.888 170.713 31.488C170.953 31.088 171.073 30.592 171.073 30C171.073 29.376 170.961 28.88 170.737 28.512C170.513 28.128 170.169 27.856 169.705 27.696C169.241 27.52 168.649 27.432 167.929 27.432ZM188.912 35.472C188.912 36.56 188.776 37.52 188.504 38.352C188.232 39.184 187.832 39.896 187.304 40.488C186.792 41.064 186.168 41.504 185.432 41.808C184.696 42.096 183.872 42.24 182.96 42.24C182.112 42.24 181.32 42.096 180.584 41.808C179.864 41.504 179.24 41.064 178.712 40.488C178.2 39.896 177.8 39.184 177.512 38.352C177.224 37.52 177.08 36.56 177.08 35.472C177.08 34.032 177.312 32.816 177.776 31.824C178.256 30.816 178.944 30.056 179.84 29.544C180.736 29.016 181.8 28.752 183.032 28.752C184.184 28.752 185.2 29.016 186.08 29.544C186.96 30.056 187.648 30.816 188.144 31.824C188.656 32.816 188.912 34.032 188.912 35.472ZM180.32 35.472C180.32 36.384 180.416 37.168 180.608 37.824C180.8 38.464 181.088 38.952 181.472 39.288C181.872 39.624 182.384 39.792 183.008 39.792C183.632 39.792 184.136 39.624 184.52 39.288C184.92 38.952 185.208 38.464 185.384 37.824C185.576 37.168 185.672 36.384 185.672 35.472C185.672 34.544 185.576 33.768 185.384 33.144C185.192 32.504 184.896 32.024 184.496 31.704C184.112 31.368 183.608 31.2 182.984 31.2C182.04 31.2 181.36 31.568 180.944 32.304C180.528 33.04 180.32 34.096 180.32 35.472ZM202.881 35.472C202.881 36.56 202.745 37.52 202.473 38.352C202.201 39.184 201.801 39.896 201.273 40.488C200.761 41.064 200.137 41.504 199.401 41.808C198.665 42.096 197.841 42.24 196.929 42.24C196.081 42.24 195.289 42.096 194.553 41.808C193.833 41.504 193.209 41.064 192.681 40.488C192.169 39.896 191.769 39.184 191.481 38.352C191.193 37.52 191.049 36.56 191.049 35.472C191.049 34.032 191.281 32.816 191.745 31.824C192.225 30.816 192.913 30.056 193.809 29.544C194.705 29.016 195.769 28.752 197.001 28.752C198.153 28.752 199.169 29.016 200.049 29.544C200.929 30.056 201.617 30.816 202.113 31.824C202.625 32.816 202.881 34.032 202.881 35.472ZM194.289 35.472C194.289 36.384 194.385 37.168 194.577 37.824C194.769 38.464 195.057 38.952 195.441 39.288C195.841 39.624 196.353 39.792 196.977 39.792C197.601 39.792 198.105 39.624 198.489 39.288C198.889 38.952 199.177 38.464 199.353 37.824C199.545 37.168 199.641 36.384 199.641 35.472C199.641 34.544 199.545 33.768 199.353 33.144C199.161 32.504 198.865 32.024 198.465 31.704C198.081 31.368 197.577 31.2 196.953 31.2C196.009 31.2 195.329 31.568 194.913 32.304C194.497 33.04 194.289 34.096 194.289 35.472ZM219.946 28.752C221.354 28.752 222.41 29.128 223.114 29.88C223.818 30.632 224.17 31.848 224.17 33.528V42H221.026V34.104C221.026 33.144 220.866 32.424 220.546 31.944C220.226 31.448 219.73 31.2 219.058 31.2C218.13 31.2 217.474 31.544 217.09 32.232C216.706 32.92 216.514 33.92 216.514 35.232V42H213.346V34.104C213.346 33.464 213.274 32.928 213.13 32.496C212.986 32.064 212.77 31.744 212.482 31.536C212.194 31.312 211.826 31.2 211.378 31.2C210.738 31.2 210.234 31.376 209.866 31.728C209.498 32.064 209.234 32.56 209.074 33.216C208.93 33.872 208.858 34.68 208.858 35.64V42H205.666V28.992H208.114L208.57 30.696H208.714C208.954 30.248 209.25 29.88 209.602 29.592C209.97 29.304 210.386 29.096 210.85 28.968C211.33 28.824 211.826 28.752 212.338 28.752C213.25 28.752 214.01 28.92 214.618 29.256C215.242 29.576 215.722 30.08 216.057 30.768H216.226C216.626 30.064 217.154 29.552 217.81 29.232C218.482 28.912 219.194 28.752 219.946 28.752Z" fill="#505050"/>
<path d="M137.25 65H113.75L125.25 82.5L137.25 65Z" fill="#F9F9F9"/>
</svg>
