<svg width="282" height="81" viewBox="0 0 282 81" fill="none" xmlns="http://www.w3.org/2000/svg">
<rect x="8" y="8" width="266" height="65" rx="32.5" fill="white"/>
<rect x="8" y="8" width="266" height="65" rx="32.5" stroke="#505050"/>
<path d="M48.952 35.216C48.28 35.216 47.672 35.36 47.128 35.648C46.584 35.936 46.12 36.352 45.736 36.896C45.368 37.44 45.088 38.096 44.896 38.864C44.704 39.632 44.608 40.496 44.608 41.456C44.608 42.752 44.768 43.864 45.088 44.792C45.408 45.704 45.896 46.408 46.552 46.904C47.208 47.4 48.032 47.648 49.024 47.648C49.712 47.648 50.384 47.576 51.04 47.432C51.696 47.272 52.36 47.064 53.032 46.808V49.424C52.376 49.712 51.696 49.92 50.992 50.048C50.304 50.176 49.528 50.24 48.664 50.24C46.984 50.24 45.6 49.88 44.512 49.16C43.424 48.424 42.608 47.4 42.064 46.088C41.536 44.76 41.272 43.208 41.272 41.432C41.272 40.136 41.44 38.952 41.776 37.88C42.112 36.808 42.608 35.88 43.264 35.096C43.92 34.312 44.728 33.704 45.688 33.272C46.648 32.84 47.744 32.624 48.976 32.624C49.792 32.624 50.616 32.728 51.448 32.936C52.296 33.128 53.04 33.4 53.68 33.752L52.6 36.272C52.04 36 51.456 35.76 50.848 35.552C50.256 35.328 49.624 35.216 48.952 35.216ZM67.3026 43.472C67.3026 44.56 67.1666 45.52 66.8946 46.352C66.6226 47.184 66.2226 47.896 65.6946 48.488C65.1826 49.064 64.5586 49.504 63.8226 49.808C63.0866 50.096 62.2626 50.24 61.3506 50.24C60.5026 50.24 59.7106 50.096 58.9746 49.808C58.2546 49.504 57.6306 49.064 57.1026 48.488C56.5906 47.896 56.1906 47.184 55.9026 46.352C55.6146 45.52 55.4706 44.56 55.4706 43.472C55.4706 42.032 55.7026 40.816 56.1666 39.824C56.6466 38.816 57.3346 38.056 58.2306 37.544C59.1266 37.016 60.1906 36.752 61.4226 36.752C62.5746 36.752 63.5906 37.016 64.4706 37.544C65.3506 38.056 66.0386 38.816 66.5346 39.824C67.0466 40.816 67.3026 42.032 67.3026 43.472ZM58.7106 43.472C58.7106 44.384 58.8066 45.168 58.9986 45.824C59.1906 46.464 59.4786 46.952 59.8626 47.288C60.2626 47.624 60.7746 47.792 61.3986 47.792C62.0226 47.792 62.5266 47.624 62.9106 47.288C63.3106 46.952 63.5986 46.464 63.7746 45.824C63.9666 45.168 64.0626 44.384 64.0626 43.472C64.0626 42.544 63.9666 41.768 63.7746 41.144C63.5826 40.504 63.2866 40.024 62.8866 39.704C62.5026 39.368 61.9986 39.2 61.3746 39.2C60.4306 39.2 59.7506 39.568 59.3346 40.304C58.9186 41.04 58.7106 42.096 58.7106 43.472ZM81.2234 36.992V50H78.7754L78.3674 48.32H78.1994C77.9434 48.768 77.6154 49.136 77.2154 49.424C76.8154 49.696 76.3754 49.896 75.8954 50.024C75.4154 50.168 74.9194 50.24 74.4074 50.24C73.5114 50.24 72.7354 50.072 72.0794 49.736C71.4234 49.4 70.9114 48.888 70.5434 48.2C70.1914 47.496 70.0154 46.592 70.0154 45.488V36.992H73.2074V44.888C73.2074 45.848 73.3674 46.576 73.6874 47.072C74.0234 47.552 74.5514 47.792 75.2714 47.792C75.9914 47.792 76.5514 47.624 76.9514 47.288C77.3674 46.936 77.6554 46.432 77.8154 45.776C77.9754 45.12 78.0554 44.312 78.0554 43.352V36.992H81.2234ZM91.5524 36.752C92.9124 36.752 93.9844 37.128 94.7684 37.88C95.5524 38.632 95.9444 39.848 95.9444 41.528V50H92.7524V42.128C92.7524 41.152 92.5844 40.424 92.2484 39.944C91.9124 39.448 91.3844 39.2 90.6644 39.2C89.5924 39.2 88.8644 39.584 88.4804 40.352C88.0964 41.104 87.9044 42.2 87.9044 43.64V50H84.7124V36.992H87.1604L87.6164 38.696H87.7364C88.0244 38.248 88.3604 37.88 88.7444 37.592C89.1284 37.304 89.5604 37.096 90.0404 36.968C90.5204 36.824 91.0244 36.752 91.5524 36.752ZM107.905 46.232C107.905 47.096 107.713 47.832 107.329 48.44C106.945 49.032 106.377 49.48 105.625 49.784C104.873 50.088 103.929 50.24 102.793 50.24C101.929 50.24 101.177 50.176 100.537 50.048C99.8974 49.92 99.2814 49.72 98.6894 49.448V46.88C99.3294 47.184 100.017 47.44 100.753 47.648C101.505 47.856 102.185 47.96 102.793 47.96C103.513 47.96 104.033 47.832 104.353 47.576C104.673 47.32 104.833 46.976 104.833 46.544C104.833 46.288 104.761 46.056 104.617 45.848C104.489 45.64 104.217 45.424 103.801 45.2C103.401 44.96 102.817 44.664 102.049 44.312C101.297 43.976 100.673 43.64 100.177 43.304C99.6814 42.968 99.3054 42.568 99.0494 42.104C98.7934 41.624 98.6654 41.024 98.6654 40.304C98.6654 39.136 99.1054 38.256 99.9854 37.664C100.881 37.056 102.049 36.752 103.489 36.752C104.273 36.752 105.001 36.832 105.673 36.992C106.361 37.136 107.049 37.376 107.737 37.712L106.801 39.944C106.417 39.768 106.025 39.616 105.625 39.488C105.241 39.344 104.865 39.232 104.497 39.152C104.145 39.072 103.793 39.032 103.441 39.032C102.881 39.032 102.457 39.136 102.169 39.344C101.881 39.536 101.737 39.816 101.737 40.184C101.737 40.44 101.809 40.672 101.953 40.88C102.097 41.072 102.369 41.272 102.769 41.48C103.169 41.688 103.737 41.952 104.473 42.272C105.209 42.56 105.833 42.872 106.345 43.208C106.857 43.528 107.241 43.928 107.497 44.408C107.769 44.888 107.905 45.496 107.905 46.232ZM115.676 36.752C116.796 36.752 117.756 36.992 118.556 37.472C119.372 37.936 120.004 38.608 120.452 39.488C120.9 40.352 121.124 41.408 121.124 42.656V44.192H113.156C113.188 45.376 113.476 46.296 114.02 46.952C114.58 47.592 115.364 47.912 116.372 47.912C117.172 47.912 117.884 47.832 118.508 47.672C119.132 47.496 119.78 47.248 120.452 46.928V49.352C119.844 49.656 119.212 49.88 118.556 50.024C117.9 50.168 117.092 50.24 116.132 50.24C114.916 50.24 113.836 50 112.892 49.52C111.964 49.024 111.236 48.28 110.708 47.288C110.18 46.296 109.916 45.064 109.916 43.592C109.916 42.104 110.156 40.856 110.636 39.848C111.116 38.824 111.788 38.056 112.652 37.544C113.532 37.016 114.54 36.752 115.676 36.752ZM115.724 38.984C115.004 38.984 114.42 39.248 113.972 39.776C113.54 40.288 113.284 41.056 113.204 42.08H118.1C118.1 41.472 118.012 40.936 117.836 40.472C117.66 40.008 117.396 39.648 117.044 39.392C116.708 39.12 116.268 38.984 115.724 38.984ZM127.045 50H123.853V31.76H127.045V50ZM133.701 50H130.509V31.76H133.701V50ZM140.358 36.992V50H137.19V36.992H140.358ZM138.798 31.976C139.262 31.976 139.662 32.096 139.998 32.336C140.334 32.56 140.502 32.968 140.502 33.56C140.502 34.136 140.334 34.552 139.998 34.808C139.662 35.048 139.262 35.168 138.798 35.168C138.302 35.168 137.886 35.048 137.55 34.808C137.214 34.552 137.046 34.136 137.046 33.56C137.046 32.968 137.214 32.56 137.55 32.336C137.886 32.096 138.302 31.976 138.798 31.976ZM150.662 36.752C152.022 36.752 153.094 37.128 153.878 37.88C154.662 38.632 155.054 39.848 155.054 41.528V50H151.862V42.128C151.862 41.152 151.694 40.424 151.358 39.944C151.022 39.448 150.494 39.2 149.774 39.2C148.702 39.2 147.974 39.584 147.59 40.352C147.206 41.104 147.014 42.2 147.014 43.64V50H143.822V36.992H146.27L146.726 38.696H146.846C147.134 38.248 147.47 37.88 147.854 37.592C148.238 37.304 148.67 37.096 149.15 36.968C149.63 36.824 150.134 36.752 150.662 36.752ZM162.551 36.752C163.351 36.752 164.047 36.912 164.639 37.232C165.231 37.552 165.727 38.032 166.127 38.672H166.223L166.511 36.992H169.199V50.096C169.199 51.328 168.975 52.36 168.527 53.192C168.079 54.04 167.407 54.68 166.511 55.112C165.631 55.544 164.511 55.76 163.151 55.76C162.239 55.76 161.407 55.696 160.655 55.568C159.919 55.456 159.215 55.256 158.543 54.968V52.472C159.007 52.68 159.479 52.856 159.959 53C160.455 53.16 160.967 53.28 161.495 53.36C162.023 53.44 162.583 53.48 163.175 53.48C164.103 53.48 164.807 53.2 165.287 52.64C165.783 52.08 166.031 51.28 166.031 50.24V49.904C166.031 49.664 166.039 49.384 166.055 49.064C166.087 48.744 166.111 48.488 166.127 48.296H166.031C165.647 48.968 165.167 49.464 164.591 49.784C164.015 50.088 163.319 50.24 162.503 50.24C161.047 50.24 159.895 49.648 159.047 48.464C158.215 47.28 157.799 45.632 157.799 43.52C157.799 42.096 157.991 40.88 158.375 39.872C158.759 38.864 159.303 38.096 160.007 37.568C160.727 37.024 161.575 36.752 162.551 36.752ZM163.511 39.224C162.967 39.224 162.511 39.392 162.143 39.728C161.791 40.048 161.519 40.528 161.327 41.168C161.135 41.808 161.039 42.608 161.039 43.568C161.039 44.976 161.247 46.04 161.663 46.76C162.079 47.48 162.703 47.84 163.535 47.84C164.015 47.84 164.423 47.776 164.759 47.648C165.095 47.504 165.367 47.28 165.575 46.976C165.783 46.656 165.943 46.256 166.055 45.776C166.167 45.28 166.223 44.688 166.223 44V43.544C166.223 42.504 166.127 41.672 165.935 41.048C165.759 40.408 165.471 39.944 165.071 39.656C164.671 39.368 164.151 39.224 163.511 39.224ZM183.573 32.864C184.997 32.864 186.173 33.048 187.101 33.416C188.029 33.784 188.717 34.344 189.165 35.096C189.613 35.832 189.837 36.768 189.837 37.904C189.837 38.736 189.701 39.448 189.429 40.04C189.157 40.632 188.789 41.128 188.325 41.528C187.877 41.912 187.389 42.224 186.861 42.464L191.469 50H187.821L184.101 43.232H182.013V50H178.797V32.864H183.573ZM183.429 35.432H182.013V40.712H183.477C184.165 40.712 184.733 40.608 185.181 40.4C185.645 40.192 185.989 39.888 186.213 39.488C186.453 39.088 186.573 38.592 186.573 38C186.573 37.376 186.461 36.88 186.237 36.512C186.013 36.128 185.669 35.856 185.205 35.696C184.741 35.52 184.149 35.432 183.429 35.432ZM204.412 43.472C204.412 44.56 204.276 45.52 204.004 46.352C203.732 47.184 203.332 47.896 202.804 48.488C202.292 49.064 201.668 49.504 200.932 49.808C200.196 50.096 199.372 50.24 198.46 50.24C197.612 50.24 196.82 50.096 196.084 49.808C195.364 49.504 194.74 49.064 194.212 48.488C193.7 47.896 193.3 47.184 193.012 46.352C192.724 45.52 192.58 44.56 192.58 43.472C192.58 42.032 192.812 40.816 193.276 39.824C193.756 38.816 194.444 38.056 195.34 37.544C196.236 37.016 197.3 36.752 198.532 36.752C199.684 36.752 200.7 37.016 201.58 37.544C202.46 38.056 203.148 38.816 203.644 39.824C204.156 40.816 204.412 42.032 204.412 43.472ZM195.82 43.472C195.82 44.384 195.916 45.168 196.108 45.824C196.3 46.464 196.588 46.952 196.972 47.288C197.372 47.624 197.884 47.792 198.508 47.792C199.132 47.792 199.636 47.624 200.02 47.288C200.42 46.952 200.708 46.464 200.884 45.824C201.076 45.168 201.172 44.384 201.172 43.472C201.172 42.544 201.076 41.768 200.884 41.144C200.692 40.504 200.396 40.024 199.996 39.704C199.612 39.368 199.108 39.2 198.484 39.2C197.54 39.2 196.86 39.568 196.444 40.304C196.028 41.04 195.82 42.096 195.82 43.472ZM218.381 43.472C218.381 44.56 218.245 45.52 217.973 46.352C217.701 47.184 217.301 47.896 216.773 48.488C216.261 49.064 215.637 49.504 214.901 49.808C214.165 50.096 213.341 50.24 212.429 50.24C211.581 50.24 210.789 50.096 210.053 49.808C209.333 49.504 208.709 49.064 208.181 48.488C207.669 47.896 207.269 47.184 206.981 46.352C206.693 45.52 206.549 44.56 206.549 43.472C206.549 42.032 206.781 40.816 207.245 39.824C207.725 38.816 208.413 38.056 209.309 37.544C210.205 37.016 211.269 36.752 212.501 36.752C213.653 36.752 214.669 37.016 215.549 37.544C216.429 38.056 217.117 38.816 217.613 39.824C218.125 40.816 218.381 42.032 218.381 43.472ZM209.789 43.472C209.789 44.384 209.885 45.168 210.077 45.824C210.269 46.464 210.557 46.952 210.941 47.288C211.341 47.624 211.853 47.792 212.477 47.792C213.101 47.792 213.605 47.624 213.989 47.288C214.389 46.952 214.677 46.464 214.853 45.824C215.045 45.168 215.141 44.384 215.141 43.472C215.141 42.544 215.045 41.768 214.853 41.144C214.661 40.504 214.365 40.024 213.965 39.704C213.581 39.368 213.077 39.2 212.453 39.2C211.509 39.2 210.829 39.568 210.413 40.304C209.997 41.04 209.789 42.096 209.789 43.472ZM235.446 36.752C236.854 36.752 237.91 37.128 238.614 37.88C239.318 38.632 239.67 39.848 239.67 41.528V50H236.526V42.104C236.526 41.144 236.366 40.424 236.046 39.944C235.726 39.448 235.23 39.2 234.558 39.2C233.63 39.2 232.974 39.544 232.59 40.232C232.206 40.92 232.014 41.92 232.014 43.232V50H228.846V42.104C228.846 41.464 228.774 40.928 228.63 40.496C228.486 40.064 228.27 39.744 227.982 39.536C227.694 39.312 227.326 39.2 226.878 39.2C226.238 39.2 225.734 39.376 225.366 39.728C224.998 40.064 224.734 40.56 224.574 41.216C224.43 41.872 224.358 42.68 224.358 43.64V50H221.166V36.992H223.614L224.07 38.696H224.214C224.454 38.248 224.75 37.88 225.102 37.592C225.47 37.304 225.886 37.096 226.35 36.968C226.83 36.824 227.326 36.752 227.838 36.752C228.75 36.752 229.51 36.92 230.118 37.256C230.742 37.576 231.222 38.08 231.557 38.768H231.726C232.126 38.064 232.654 37.552 233.31 37.232C233.982 36.912 234.694 36.752 235.446 36.752Z" fill="#505050"/>
</svg>
