<svg width="260" height="83" viewBox="0 0 260 83" fill="none" xmlns="http://www.w3.org/2000/svg">
<rect x="0.5" width="259" height="65" rx="32.5" fill="#F9F9F9"/>
<path d="M35.756 42H26.516V24.864H35.756V27.432H29.732V31.8H35.372V34.368H29.732V39.408H35.756V42ZM41.4551 35.352L37.4471 28.992H41.0711L43.5671 33.408L46.0631 28.992H49.6631L45.6071 35.352L49.8551 42H46.2551L43.5671 37.272L40.8551 42H37.2551L41.4551 35.352ZM57.0063 28.752C58.5743 28.752 59.7743 29.12 60.6063 29.856C61.4383 30.576 61.8543 31.712 61.8543 33.264V42H59.6223L58.9983 40.2H58.9023C58.5503 40.664 58.1903 41.056 57.8223 41.376C57.4543 41.68 57.0303 41.896 56.5503 42.024C56.0703 42.168 55.4943 42.24 54.8223 42.24C54.1023 42.24 53.4543 42.096 52.8783 41.808C52.3023 41.52 51.8463 41.08 51.5103 40.488C51.1743 39.88 51.0063 39.12 51.0063 38.208C51.0063 36.864 51.4703 35.856 52.3983 35.184C53.3263 34.496 54.7183 34.12 56.5743 34.056L58.6623 33.984V33.336C58.6623 32.504 58.4863 31.912 58.1343 31.56C57.7823 31.208 57.3023 31.032 56.6943 31.032C56.1183 31.032 55.5343 31.128 54.9423 31.32C54.3663 31.512 53.7983 31.736 53.2383 31.992L52.2543 29.88C52.9103 29.544 53.6383 29.272 54.4383 29.064C55.2383 28.856 56.0943 28.752 57.0063 28.752ZM57.3183 35.904C56.1823 35.952 55.3903 36.184 54.9423 36.6C54.4943 37 54.2703 37.544 54.2703 38.232C54.2703 38.84 54.4223 39.28 54.7263 39.552C55.0463 39.824 55.4623 39.96 55.9743 39.96C56.7263 39.96 57.3663 39.712 57.8943 39.216C58.4223 38.704 58.6863 37.952 58.6863 36.96V35.856L57.3183 35.904ZM79.508 28.752C80.916 28.752 81.972 29.128 82.676 29.88C83.38 30.632 83.732 31.848 83.732 33.528V42H80.588V34.104C80.588 33.144 80.428 32.424 80.108 31.944C79.788 31.448 79.292 31.2 78.62 31.2C77.692 31.2 77.036 31.544 76.652 32.232C76.268 32.92 76.076 33.92 76.076 35.232V42H72.908V34.104C72.908 33.464 72.836 32.928 72.692 32.496C72.548 32.064 72.332 31.744 72.044 31.536C71.756 31.312 71.388 31.2 70.94 31.2C70.3 31.2 69.796 31.376 69.428 31.728C69.06 32.064 68.796 32.56 68.636 33.216C68.492 33.872 68.42 34.68 68.42 35.64V42H65.228V28.992H67.676L68.132 30.696H68.276C68.516 30.248 68.812 29.88 69.164 29.592C69.532 29.304 69.948 29.096 70.412 28.968C70.892 28.824 71.388 28.752 71.9 28.752C72.812 28.752 73.572 28.92 74.18 29.256C74.804 29.576 75.284 30.08 75.62 30.768H75.788C76.188 30.064 76.716 29.552 77.372 29.232C78.044 28.912 78.756 28.752 79.508 28.752ZM90.3341 28.992V42H87.1661V28.992H90.3341ZM88.7741 23.976C89.2381 23.976 89.6381 24.096 89.9741 24.336C90.3101 24.56 90.4781 24.968 90.4781 25.56C90.4781 26.136 90.3101 26.552 89.9741 26.808C89.6381 27.048 89.2381 27.168 88.7741 27.168C88.2781 27.168 87.8621 27.048 87.5261 26.808C87.1901 26.552 87.0221 26.136 87.0221 25.56C87.0221 24.968 87.1901 24.56 87.5261 24.336C87.8621 24.096 88.2781 23.976 88.7741 23.976ZM100.638 28.752C101.998 28.752 103.07 29.128 103.854 29.88C104.638 30.632 105.03 31.848 105.03 33.528V42H101.838V34.128C101.838 33.152 101.67 32.424 101.334 31.944C100.998 31.448 100.47 31.2 99.7503 31.2C98.6783 31.2 97.9503 31.584 97.5663 32.352C97.1823 33.104 96.9903 34.2 96.9903 35.64V42H93.7983V28.992H96.2463L96.7023 30.696H96.8223C97.1103 30.248 97.4463 29.88 97.8303 29.592C98.2143 29.304 98.6463 29.096 99.1263 28.968C99.6063 28.824 100.11 28.752 100.638 28.752ZM113.631 28.752C115.199 28.752 116.399 29.12 117.231 29.856C118.063 30.576 118.479 31.712 118.479 33.264V42H116.247L115.623 40.2H115.527C115.175 40.664 114.815 41.056 114.447 41.376C114.079 41.68 113.655 41.896 113.175 42.024C112.695 42.168 112.119 42.24 111.447 42.24C110.727 42.24 110.079 42.096 109.503 41.808C108.927 41.52 108.471 41.08 108.135 40.488C107.799 39.88 107.631 39.12 107.631 38.208C107.631 36.864 108.095 35.856 109.023 35.184C109.951 34.496 111.343 34.12 113.199 34.056L115.287 33.984V33.336C115.287 32.504 115.111 31.912 114.759 31.56C114.407 31.208 113.927 31.032 113.319 31.032C112.743 31.032 112.159 31.128 111.567 31.32C110.991 31.512 110.423 31.736 109.863 31.992L108.879 29.88C109.535 29.544 110.263 29.272 111.063 29.064C111.863 28.856 112.719 28.752 113.631 28.752ZM113.943 35.904C112.807 35.952 112.015 36.184 111.567 36.6C111.119 37 110.895 37.544 110.895 38.232C110.895 38.84 111.047 39.28 111.351 39.552C111.671 39.824 112.087 39.96 112.599 39.96C113.351 39.96 113.991 39.712 114.519 39.216C115.047 38.704 115.311 37.952 115.311 36.96V35.856L113.943 35.904ZM126.941 39.816C127.293 39.816 127.629 39.784 127.949 39.72C128.285 39.64 128.597 39.552 128.885 39.456V41.712C128.549 41.856 128.141 41.976 127.661 42.072C127.181 42.184 126.645 42.24 126.053 42.24C125.317 42.24 124.661 42.12 124.085 41.88C123.509 41.624 123.053 41.192 122.717 40.584C122.397 39.976 122.237 39.128 122.237 38.04V31.272H120.605V29.952L122.429 28.896L123.389 26.136H125.405V28.992H128.765V31.272H125.405V38.016C125.405 38.624 125.541 39.08 125.813 39.384C126.101 39.672 126.477 39.816 126.941 39.816ZM134.443 28.992V42H131.275V28.992H134.443ZM132.883 23.976C133.347 23.976 133.747 24.096 134.083 24.336C134.419 24.56 134.587 24.968 134.587 25.56C134.587 26.136 134.419 26.552 134.083 26.808C133.747 27.048 133.347 27.168 132.883 27.168C132.387 27.168 131.971 27.048 131.635 26.808C131.299 26.552 131.131 26.136 131.131 25.56C131.131 24.968 131.299 24.56 131.635 24.336C131.971 24.096 132.387 23.976 132.883 23.976ZM149.092 35.472C149.092 36.56 148.956 37.52 148.684 38.352C148.412 39.184 148.012 39.896 147.484 40.488C146.972 41.064 146.348 41.504 145.612 41.808C144.876 42.096 144.052 42.24 143.14 42.24C142.292 42.24 141.5 42.096 140.764 41.808C140.044 41.504 139.42 41.064 138.892 40.488C138.38 39.896 137.98 39.184 137.692 38.352C137.404 37.52 137.26 36.56 137.26 35.472C137.26 34.032 137.492 32.816 137.956 31.824C138.436 30.816 139.124 30.056 140.02 29.544C140.916 29.016 141.98 28.752 143.212 28.752C144.364 28.752 145.38 29.016 146.26 29.544C147.14 30.056 147.828 30.816 148.324 31.824C148.836 32.816 149.092 34.032 149.092 35.472ZM140.5 35.472C140.5 36.384 140.596 37.168 140.788 37.824C140.98 38.464 141.268 38.952 141.652 39.288C142.052 39.624 142.564 39.792 143.188 39.792C143.812 39.792 144.316 39.624 144.7 39.288C145.1 38.952 145.388 38.464 145.564 37.824C145.756 37.168 145.852 36.384 145.852 35.472C145.852 34.544 145.756 33.768 145.564 33.144C145.372 32.504 145.076 32.024 144.676 31.704C144.292 31.368 143.788 31.2 143.164 31.2C142.22 31.2 141.54 31.568 141.124 32.304C140.708 33.04 140.5 34.096 140.5 35.472ZM158.716 28.752C160.076 28.752 161.148 29.128 161.932 29.88C162.716 30.632 163.108 31.848 163.108 33.528V42H159.916V34.128C159.916 33.152 159.748 32.424 159.412 31.944C159.076 31.448 158.548 31.2 157.828 31.2C156.756 31.2 156.028 31.584 155.644 32.352C155.26 33.104 155.068 34.2 155.068 35.64V42H151.876V28.992H154.324L154.78 30.696H154.9C155.188 30.248 155.524 29.88 155.908 29.592C156.292 29.304 156.724 29.096 157.204 28.968C157.684 28.824 158.188 28.752 158.716 28.752ZM177.425 24.864C178.849 24.864 180.025 25.048 180.953 25.416C181.881 25.784 182.569 26.344 183.017 27.096C183.465 27.832 183.689 28.768 183.689 29.904C183.689 30.736 183.553 31.448 183.281 32.04C183.009 32.632 182.641 33.128 182.177 33.528C181.729 33.912 181.241 34.224 180.713 34.464L185.321 42H181.673L177.953 35.232H175.865V42H172.649V24.864H177.425ZM177.281 27.432H175.865V32.712H177.329C178.017 32.712 178.585 32.608 179.033 32.4C179.497 32.192 179.841 31.888 180.065 31.488C180.305 31.088 180.425 30.592 180.425 30C180.425 29.376 180.313 28.88 180.089 28.512C179.865 28.128 179.521 27.856 179.057 27.696C178.593 27.52 178.001 27.432 177.281 27.432ZM198.264 35.472C198.264 36.56 198.128 37.52 197.856 38.352C197.584 39.184 197.184 39.896 196.656 40.488C196.144 41.064 195.52 41.504 194.784 41.808C194.048 42.096 193.224 42.24 192.312 42.24C191.464 42.24 190.672 42.096 189.936 41.808C189.216 41.504 188.592 41.064 188.064 40.488C187.552 39.896 187.152 39.184 186.864 38.352C186.576 37.52 186.432 36.56 186.432 35.472C186.432 34.032 186.664 32.816 187.128 31.824C187.608 30.816 188.296 30.056 189.192 29.544C190.088 29.016 191.152 28.752 192.384 28.752C193.536 28.752 194.552 29.016 195.432 29.544C196.312 30.056 197 30.816 197.496 31.824C198.008 32.816 198.264 34.032 198.264 35.472ZM189.672 35.472C189.672 36.384 189.768 37.168 189.96 37.824C190.152 38.464 190.44 38.952 190.824 39.288C191.224 39.624 191.736 39.792 192.36 39.792C192.984 39.792 193.488 39.624 193.872 39.288C194.272 38.952 194.56 38.464 194.736 37.824C194.928 37.168 195.024 36.384 195.024 35.472C195.024 34.544 194.928 33.768 194.736 33.144C194.544 32.504 194.248 32.024 193.848 31.704C193.464 31.368 192.96 31.2 192.336 31.2C191.392 31.2 190.712 31.568 190.296 32.304C189.88 33.04 189.672 34.096 189.672 35.472ZM212.232 35.472C212.232 36.56 212.096 37.52 211.824 38.352C211.552 39.184 211.152 39.896 210.624 40.488C210.112 41.064 209.488 41.504 208.752 41.808C208.016 42.096 207.192 42.24 206.28 42.24C205.432 42.24 204.64 42.096 203.904 41.808C203.184 41.504 202.56 41.064 202.032 40.488C201.52 39.896 201.12 39.184 200.832 38.352C200.544 37.52 200.4 36.56 200.4 35.472C200.4 34.032 200.632 32.816 201.096 31.824C201.576 30.816 202.264 30.056 203.16 29.544C204.056 29.016 205.12 28.752 206.352 28.752C207.504 28.752 208.52 29.016 209.4 29.544C210.28 30.056 210.968 30.816 211.464 31.824C211.976 32.816 212.232 34.032 212.232 35.472ZM203.64 35.472C203.64 36.384 203.736 37.168 203.928 37.824C204.12 38.464 204.408 38.952 204.792 39.288C205.192 39.624 205.704 39.792 206.328 39.792C206.952 39.792 207.456 39.624 207.84 39.288C208.24 38.952 208.528 38.464 208.704 37.824C208.896 37.168 208.992 36.384 208.992 35.472C208.992 34.544 208.896 33.768 208.704 33.144C208.512 32.504 208.216 32.024 207.816 31.704C207.432 31.368 206.928 31.2 206.304 31.2C205.36 31.2 204.68 31.568 204.264 32.304C203.848 33.04 203.64 34.096 203.64 35.472ZM229.297 28.752C230.705 28.752 231.761 29.128 232.465 29.88C233.169 30.632 233.521 31.848 233.521 33.528V42H230.377V34.104C230.377 33.144 230.217 32.424 229.897 31.944C229.577 31.448 229.081 31.2 228.409 31.2C227.481 31.2 226.825 31.544 226.441 32.232C226.057 32.92 225.865 33.92 225.865 35.232V42H222.697V34.104C222.697 33.464 222.625 32.928 222.481 32.496C222.337 32.064 222.121 31.744 221.833 31.536C221.545 31.312 221.177 31.2 220.729 31.2C220.089 31.2 219.585 31.376 219.217 31.728C218.849 32.064 218.585 32.56 218.425 33.216C218.281 33.872 218.209 34.68 218.209 35.64V42H215.017V28.992H217.465L217.921 30.696H218.065C218.305 30.248 218.601 29.88 218.953 29.592C219.321 29.304 219.737 29.096 220.201 28.968C220.681 28.824 221.177 28.752 221.689 28.752C222.601 28.752 223.361 28.92 223.969 29.256C224.593 29.576 225.073 30.08 225.409 30.768H225.577C225.977 30.064 226.505 29.552 227.161 29.232C227.833 28.912 228.545 28.752 229.297 28.752Z" fill="#505050"/>
<path d="M141.75 65H118.25L129.75 82.5L141.75 65Z" fill="#F9F9F9"/>
</svg>
