<svg width="246" height="81" viewBox="0 0 246 81" fill="none" xmlns="http://www.w3.org/2000/svg">
<rect x="8" y="8" width="230" height="65" rx="32.5" fill="white"/>
<rect x="8" y="8" width="230" height="65" rx="32.5" stroke="#505050"/>
<path d="M51.256 50H42.016V32.864H51.256V35.432H45.232V39.8H50.872V42.368H45.232V47.408H51.256V50ZM56.9551 43.352L52.9471 36.992H56.5711L59.0671 41.408L61.5631 36.992H65.1631L61.1071 43.352L65.3551 50H61.7551L59.0671 45.272L56.3551 50H52.7551L56.9551 43.352ZM72.5063 36.752C74.0743 36.752 75.2743 37.12 76.1063 37.856C76.9383 38.576 77.3543 39.712 77.3543 41.264V50H75.1223L74.4983 48.2H74.4023C74.0503 48.664 73.6903 49.056 73.3223 49.376C72.9543 49.68 72.5303 49.896 72.0503 50.024C71.5703 50.168 70.9943 50.24 70.3223 50.24C69.6023 50.24 68.9543 50.096 68.3783 49.808C67.8023 49.52 67.3463 49.08 67.0103 48.488C66.6743 47.88 66.5063 47.12 66.5063 46.208C66.5063 44.864 66.9703 43.856 67.8983 43.184C68.8263 42.496 70.2183 42.12 72.0743 42.056L74.1623 41.984V41.336C74.1623 40.504 73.9863 39.912 73.6343 39.56C73.2823 39.208 72.8023 39.032 72.1943 39.032C71.6183 39.032 71.0343 39.128 70.4423 39.32C69.8663 39.512 69.2983 39.736 68.7383 39.992L67.7543 37.88C68.4103 37.544 69.1383 37.272 69.9383 37.064C70.7383 36.856 71.5943 36.752 72.5063 36.752ZM72.8183 43.904C71.6823 43.952 70.8903 44.184 70.4423 44.6C69.9943 45 69.7703 45.544 69.7703 46.232C69.7703 46.84 69.9223 47.28 70.2263 47.552C70.5463 47.824 70.9623 47.96 71.4743 47.96C72.2263 47.96 72.8663 47.712 73.3943 47.216C73.9223 46.704 74.1863 45.952 74.1863 44.96V43.856L72.8183 43.904ZM95.008 36.752C96.416 36.752 97.472 37.128 98.176 37.88C98.88 38.632 99.232 39.848 99.232 41.528V50H96.088V42.104C96.088 41.144 95.928 40.424 95.608 39.944C95.288 39.448 94.792 39.2 94.12 39.2C93.192 39.2 92.536 39.544 92.152 40.232C91.768 40.92 91.576 41.92 91.576 43.232V50H88.408V42.104C88.408 41.464 88.336 40.928 88.192 40.496C88.048 40.064 87.832 39.744 87.544 39.536C87.256 39.312 86.888 39.2 86.44 39.2C85.8 39.2 85.296 39.376 84.928 39.728C84.56 40.064 84.296 40.56 84.136 41.216C83.992 41.872 83.92 42.68 83.92 43.64V50H80.728V36.992H83.176L83.632 38.696H83.776C84.016 38.248 84.312 37.88 84.664 37.592C85.032 37.304 85.448 37.096 85.912 36.968C86.392 36.824 86.888 36.752 87.4 36.752C88.312 36.752 89.072 36.92 89.68 37.256C90.304 37.576 90.784 38.08 91.12 38.768H91.288C91.688 38.064 92.216 37.552 92.872 37.232C93.544 36.912 94.256 36.752 95.008 36.752ZM105.834 36.992V50H102.666V36.992H105.834ZM104.274 31.976C104.738 31.976 105.138 32.096 105.474 32.336C105.81 32.56 105.978 32.968 105.978 33.56C105.978 34.136 105.81 34.552 105.474 34.808C105.138 35.048 104.738 35.168 104.274 35.168C103.778 35.168 103.362 35.048 103.026 34.808C102.69 34.552 102.522 34.136 102.522 33.56C102.522 32.968 102.69 32.56 103.026 32.336C103.362 32.096 103.778 31.976 104.274 31.976ZM116.138 36.752C117.498 36.752 118.57 37.128 119.354 37.88C120.138 38.632 120.53 39.848 120.53 41.528V50H117.338V42.128C117.338 41.152 117.17 40.424 116.834 39.944C116.498 39.448 115.97 39.2 115.25 39.2C114.178 39.2 113.45 39.584 113.066 40.352C112.682 41.104 112.49 42.2 112.49 43.64V50H109.298V36.992H111.746L112.202 38.696H112.322C112.61 38.248 112.946 37.88 113.33 37.592C113.714 37.304 114.146 37.096 114.626 36.968C115.106 36.824 115.61 36.752 116.138 36.752ZM129.035 36.752C130.155 36.752 131.115 36.992 131.915 37.472C132.731 37.936 133.363 38.608 133.811 39.488C134.259 40.352 134.483 41.408 134.483 42.656V44.192H126.515C126.547 45.376 126.835 46.296 127.379 46.952C127.939 47.592 128.723 47.912 129.731 47.912C130.531 47.912 131.243 47.832 131.867 47.672C132.491 47.496 133.139 47.248 133.811 46.928V49.352C133.203 49.656 132.571 49.88 131.915 50.024C131.259 50.168 130.451 50.24 129.491 50.24C128.275 50.24 127.195 50 126.251 49.52C125.323 49.024 124.595 48.28 124.067 47.288C123.539 46.296 123.275 45.064 123.275 43.592C123.275 42.104 123.515 40.856 123.995 39.848C124.475 38.824 125.147 38.056 126.011 37.544C126.891 37.016 127.899 36.752 129.035 36.752ZM129.083 38.984C128.363 38.984 127.779 39.248 127.331 39.776C126.899 40.288 126.643 41.056 126.563 42.08H131.459C131.459 41.472 131.371 40.936 131.195 40.472C131.019 40.008 130.755 39.648 130.403 39.392C130.067 39.12 129.627 38.984 129.083 38.984ZM148.136 32.864C149.56 32.864 150.736 33.048 151.664 33.416C152.592 33.784 153.28 34.344 153.728 35.096C154.176 35.832 154.4 36.768 154.4 37.904C154.4 38.736 154.264 39.448 153.992 40.04C153.72 40.632 153.352 41.128 152.888 41.528C152.44 41.912 151.952 42.224 151.424 42.464L156.032 50H152.384L148.664 43.232H146.576V50H143.36V32.864H148.136ZM147.992 35.432H146.576V40.712H148.04C148.728 40.712 149.296 40.608 149.744 40.4C150.208 40.192 150.552 39.888 150.776 39.488C151.016 39.088 151.136 38.592 151.136 38C151.136 37.376 151.024 36.88 150.8 36.512C150.576 36.128 150.232 35.856 149.768 35.696C149.304 35.52 148.712 35.432 147.992 35.432ZM168.975 43.472C168.975 44.56 168.839 45.52 168.567 46.352C168.295 47.184 167.895 47.896 167.367 48.488C166.855 49.064 166.231 49.504 165.495 49.808C164.759 50.096 163.935 50.24 163.023 50.24C162.175 50.24 161.383 50.096 160.647 49.808C159.927 49.504 159.303 49.064 158.775 48.488C158.263 47.896 157.863 47.184 157.575 46.352C157.287 45.52 157.143 44.56 157.143 43.472C157.143 42.032 157.375 40.816 157.839 39.824C158.319 38.816 159.007 38.056 159.903 37.544C160.799 37.016 161.863 36.752 163.095 36.752C164.247 36.752 165.263 37.016 166.143 37.544C167.023 38.056 167.711 38.816 168.207 39.824C168.719 40.816 168.975 42.032 168.975 43.472ZM160.383 43.472C160.383 44.384 160.479 45.168 160.671 45.824C160.863 46.464 161.151 46.952 161.535 47.288C161.935 47.624 162.447 47.792 163.071 47.792C163.695 47.792 164.199 47.624 164.583 47.288C164.983 46.952 165.271 46.464 165.447 45.824C165.639 45.168 165.735 44.384 165.735 43.472C165.735 42.544 165.639 41.768 165.447 41.144C165.255 40.504 164.959 40.024 164.559 39.704C164.175 39.368 163.671 39.2 163.047 39.2C162.103 39.2 161.423 39.568 161.007 40.304C160.591 41.04 160.383 42.096 160.383 43.472ZM182.943 43.472C182.943 44.56 182.807 45.52 182.535 46.352C182.263 47.184 181.863 47.896 181.335 48.488C180.823 49.064 180.199 49.504 179.463 49.808C178.727 50.096 177.903 50.24 176.991 50.24C176.143 50.24 175.351 50.096 174.615 49.808C173.895 49.504 173.271 49.064 172.743 48.488C172.231 47.896 171.831 47.184 171.543 46.352C171.255 45.52 171.111 44.56 171.111 43.472C171.111 42.032 171.343 40.816 171.807 39.824C172.287 38.816 172.975 38.056 173.871 37.544C174.767 37.016 175.831 36.752 177.063 36.752C178.215 36.752 179.231 37.016 180.111 37.544C180.991 38.056 181.679 38.816 182.175 39.824C182.687 40.816 182.943 42.032 182.943 43.472ZM174.351 43.472C174.351 44.384 174.447 45.168 174.639 45.824C174.831 46.464 175.119 46.952 175.503 47.288C175.903 47.624 176.415 47.792 177.039 47.792C177.663 47.792 178.167 47.624 178.551 47.288C178.951 46.952 179.239 46.464 179.415 45.824C179.607 45.168 179.703 44.384 179.703 43.472C179.703 42.544 179.607 41.768 179.415 41.144C179.223 40.504 178.927 40.024 178.527 39.704C178.143 39.368 177.639 39.2 177.015 39.2C176.071 39.2 175.391 39.568 174.975 40.304C174.559 41.04 174.351 42.096 174.351 43.472ZM200.008 36.752C201.416 36.752 202.472 37.128 203.176 37.88C203.88 38.632 204.232 39.848 204.232 41.528V50H201.088V42.104C201.088 41.144 200.928 40.424 200.608 39.944C200.288 39.448 199.792 39.2 199.12 39.2C198.192 39.2 197.536 39.544 197.152 40.232C196.768 40.92 196.576 41.92 196.576 43.232V50H193.408V42.104C193.408 41.464 193.336 40.928 193.192 40.496C193.048 40.064 192.832 39.744 192.544 39.536C192.256 39.312 191.888 39.2 191.44 39.2C190.8 39.2 190.296 39.376 189.928 39.728C189.56 40.064 189.296 40.56 189.136 41.216C188.992 41.872 188.92 42.68 188.92 43.64V50H185.728V36.992H188.176L188.632 38.696H188.776C189.016 38.248 189.312 37.88 189.664 37.592C190.032 37.304 190.448 37.096 190.912 36.968C191.392 36.824 191.888 36.752 192.4 36.752C193.312 36.752 194.072 36.92 194.68 37.256C195.304 37.576 195.784 38.08 196.12 38.768H196.288C196.688 38.064 197.216 37.552 197.872 37.232C198.544 36.912 199.256 36.752 200.008 36.752Z" fill="#505050"/>
</svg>
