<svg width="211" height="83" viewBox="0 0 211 83" fill="none" xmlns="http://www.w3.org/2000/svg">
<rect width="211" height="65" rx="32.5" fill="#F9F9F9"/>
<path d="M44.9554 42H41.7154V34.392H35.0914V42H31.8754V24.864H35.0914V31.776H41.7154V24.864H44.9554V42ZM53.8088 28.752C54.9288 28.752 55.8888 28.992 56.6888 29.472C57.5048 29.936 58.1368 30.608 58.5848 31.488C59.0328 32.352 59.2568 33.408 59.2568 34.656V36.192H51.2888C51.3208 37.376 51.6088 38.296 52.1528 38.952C52.7128 39.592 53.4968 39.912 54.5048 39.912C55.3048 39.912 56.0168 39.832 56.6408 39.672C57.2648 39.496 57.9128 39.248 58.5848 38.928V41.352C57.9768 41.656 57.3448 41.88 56.6888 42.024C56.0328 42.168 55.2248 42.24 54.2648 42.24C53.0488 42.24 51.9688 42 51.0248 41.52C50.0968 41.024 49.3688 40.28 48.8408 39.288C48.3128 38.296 48.0488 37.064 48.0488 35.592C48.0488 34.104 48.2888 32.856 48.7688 31.848C49.2488 30.824 49.9208 30.056 50.7848 29.544C51.6648 29.016 52.6728 28.752 53.8088 28.752ZM53.8568 30.984C53.1368 30.984 52.5528 31.248 52.1048 31.776C51.6728 32.288 51.4168 33.056 51.3368 34.08H56.2328C56.2328 33.472 56.1448 32.936 55.9688 32.472C55.7928 32.008 55.5288 31.648 55.1768 31.392C54.8408 31.12 54.4008 30.984 53.8568 30.984ZM67.1938 28.752C68.7618 28.752 69.9618 29.12 70.7938 29.856C71.6258 30.576 72.0418 31.712 72.0418 33.264V42H69.8098L69.1858 40.2H69.0898C68.7378 40.664 68.3778 41.056 68.0098 41.376C67.6418 41.68 67.2178 41.896 66.7378 42.024C66.2578 42.168 65.6818 42.24 65.0098 42.24C64.2898 42.24 63.6418 42.096 63.0658 41.808C62.4898 41.52 62.0338 41.08 61.6978 40.488C61.3618 39.88 61.1938 39.12 61.1938 38.208C61.1938 36.864 61.6578 35.856 62.5858 35.184C63.5138 34.496 64.9058 34.12 66.7618 34.056L68.8498 33.984V33.336C68.8498 32.504 68.6738 31.912 68.3218 31.56C67.9698 31.208 67.4898 31.032 66.8818 31.032C66.3058 31.032 65.7218 31.128 65.1298 31.32C64.5538 31.512 63.9858 31.736 63.4258 31.992L62.4418 29.88C63.0978 29.544 63.8258 29.272 64.6258 29.064C65.4258 28.856 66.2818 28.752 67.1938 28.752ZM67.5058 35.904C66.3698 35.952 65.5778 36.184 65.1298 36.6C64.6818 37 64.4578 37.544 64.4578 38.232C64.4578 38.84 64.6098 39.28 64.9138 39.552C65.2338 39.824 65.6498 39.96 66.1618 39.96C66.9138 39.96 67.5538 39.712 68.0818 39.216C68.6098 38.704 68.8738 37.952 68.8738 36.96V35.856L67.5058 35.904ZM78.6075 42H75.4155V23.76H78.6075V42ZM85.2638 28.992V42H82.0958V28.992H85.2638ZM83.7038 23.976C84.1678 23.976 84.5678 24.096 84.9038 24.336C85.2398 24.56 85.4078 24.968 85.4078 25.56C85.4078 26.136 85.2398 26.552 84.9038 26.808C84.5678 27.048 84.1678 27.168 83.7038 27.168C83.2078 27.168 82.7918 27.048 82.4558 26.808C82.1198 26.552 81.9518 26.136 81.9518 25.56C81.9518 24.968 82.1198 24.56 82.4558 24.336C82.7918 24.096 83.2078 23.976 83.7038 23.976ZM95.568 28.752C96.928 28.752 98 29.128 98.784 29.88C99.568 30.632 99.96 31.848 99.96 33.528V42H96.768V34.128C96.768 33.152 96.6 32.424 96.264 31.944C95.928 31.448 95.4 31.2 94.68 31.2C93.608 31.2 92.88 31.584 92.496 32.352C92.112 33.104 91.92 34.2 91.92 35.64V42H88.728V28.992H91.176L91.632 30.696H91.752C92.04 30.248 92.376 29.88 92.76 29.592C93.144 29.304 93.576 29.096 94.056 28.968C94.536 28.824 95.04 28.752 95.568 28.752ZM107.457 28.752C108.257 28.752 108.953 28.912 109.545 29.232C110.137 29.552 110.633 30.032 111.033 30.672H111.129L111.417 28.992H114.105V42.096C114.105 43.328 113.881 44.36 113.433 45.192C112.985 46.04 112.313 46.68 111.417 47.112C110.537 47.544 109.417 47.76 108.057 47.76C107.145 47.76 106.313 47.696 105.561 47.568C104.825 47.456 104.121 47.256 103.449 46.968V44.472C103.913 44.68 104.385 44.856 104.865 45C105.361 45.16 105.873 45.28 106.401 45.36C106.929 45.44 107.489 45.48 108.081 45.48C109.009 45.48 109.713 45.2 110.193 44.64C110.689 44.08 110.937 43.28 110.937 42.24V41.904C110.937 41.664 110.945 41.384 110.961 41.064C110.993 40.744 111.017 40.488 111.033 40.296H110.937C110.553 40.968 110.073 41.464 109.497 41.784C108.921 42.088 108.225 42.24 107.409 42.24C105.953 42.24 104.801 41.648 103.953 40.464C103.121 39.28 102.705 37.632 102.705 35.52C102.705 34.096 102.897 32.88 103.281 31.872C103.665 30.864 104.209 30.096 104.913 29.568C105.633 29.024 106.481 28.752 107.457 28.752ZM108.417 31.224C107.873 31.224 107.417 31.392 107.049 31.728C106.697 32.048 106.425 32.528 106.233 33.168C106.041 33.808 105.945 34.608 105.945 35.568C105.945 36.976 106.153 38.04 106.569 38.76C106.985 39.48 107.609 39.84 108.441 39.84C108.921 39.84 109.329 39.776 109.665 39.648C110.001 39.504 110.273 39.28 110.481 38.976C110.689 38.656 110.849 38.256 110.961 37.776C111.073 37.28 111.129 36.688 111.129 36V35.544C111.129 34.504 111.033 33.672 110.841 33.048C110.665 32.408 110.377 31.944 109.977 31.656C109.577 31.368 109.057 31.224 108.417 31.224ZM128.48 24.864C129.904 24.864 131.08 25.048 132.008 25.416C132.936 25.784 133.624 26.344 134.072 27.096C134.52 27.832 134.744 28.768 134.744 29.904C134.744 30.736 134.608 31.448 134.336 32.04C134.064 32.632 133.696 33.128 133.232 33.528C132.784 33.912 132.296 34.224 131.768 34.464L136.376 42H132.728L129.008 35.232H126.92V42H123.704V24.864H128.48ZM128.336 27.432H126.92V32.712H128.384C129.072 32.712 129.64 32.608 130.088 32.4C130.552 32.192 130.896 31.888 131.12 31.488C131.36 31.088 131.48 30.592 131.48 30C131.48 29.376 131.368 28.88 131.144 28.512C130.92 28.128 130.576 27.856 130.112 27.696C129.648 27.52 129.056 27.432 128.336 27.432ZM149.318 35.472C149.318 36.56 149.182 37.52 148.91 38.352C148.638 39.184 148.238 39.896 147.71 40.488C147.198 41.064 146.574 41.504 145.838 41.808C145.102 42.096 144.278 42.24 143.366 42.24C142.518 42.24 141.726 42.096 140.99 41.808C140.27 41.504 139.646 41.064 139.118 40.488C138.606 39.896 138.206 39.184 137.918 38.352C137.63 37.52 137.486 36.56 137.486 35.472C137.486 34.032 137.718 32.816 138.182 31.824C138.662 30.816 139.35 30.056 140.246 29.544C141.142 29.016 142.206 28.752 143.438 28.752C144.59 28.752 145.606 29.016 146.486 29.544C147.366 30.056 148.054 30.816 148.55 31.824C149.062 32.816 149.318 34.032 149.318 35.472ZM140.726 35.472C140.726 36.384 140.822 37.168 141.014 37.824C141.206 38.464 141.494 38.952 141.878 39.288C142.278 39.624 142.79 39.792 143.414 39.792C144.038 39.792 144.542 39.624 144.926 39.288C145.326 38.952 145.614 38.464 145.79 37.824C145.982 37.168 146.078 36.384 146.078 35.472C146.078 34.544 145.982 33.768 145.79 33.144C145.598 32.504 145.302 32.024 144.902 31.704C144.518 31.368 144.014 31.2 143.39 31.2C142.446 31.2 141.766 31.568 141.35 32.304C140.934 33.04 140.726 34.096 140.726 35.472ZM163.287 35.472C163.287 36.56 163.151 37.52 162.879 38.352C162.607 39.184 162.207 39.896 161.679 40.488C161.167 41.064 160.543 41.504 159.807 41.808C159.071 42.096 158.247 42.24 157.335 42.24C156.487 42.24 155.695 42.096 154.959 41.808C154.239 41.504 153.615 41.064 153.087 40.488C152.575 39.896 152.175 39.184 151.887 38.352C151.599 37.52 151.455 36.56 151.455 35.472C151.455 34.032 151.687 32.816 152.151 31.824C152.631 30.816 153.319 30.056 154.215 29.544C155.111 29.016 156.175 28.752 157.407 28.752C158.559 28.752 159.575 29.016 160.455 29.544C161.335 30.056 162.023 30.816 162.519 31.824C163.031 32.816 163.287 34.032 163.287 35.472ZM154.695 35.472C154.695 36.384 154.791 37.168 154.983 37.824C155.175 38.464 155.463 38.952 155.847 39.288C156.247 39.624 156.759 39.792 157.383 39.792C158.007 39.792 158.511 39.624 158.895 39.288C159.295 38.952 159.583 38.464 159.759 37.824C159.951 37.168 160.047 36.384 160.047 35.472C160.047 34.544 159.951 33.768 159.759 33.144C159.567 32.504 159.271 32.024 158.871 31.704C158.487 31.368 157.983 31.2 157.359 31.2C156.415 31.2 155.735 31.568 155.319 32.304C154.903 33.04 154.695 34.096 154.695 35.472ZM180.352 28.752C181.76 28.752 182.816 29.128 183.52 29.88C184.224 30.632 184.576 31.848 184.576 33.528V42H181.432V34.104C181.432 33.144 181.272 32.424 180.952 31.944C180.632 31.448 180.136 31.2 179.464 31.2C178.536 31.2 177.88 31.544 177.496 32.232C177.112 32.92 176.92 33.92 176.92 35.232V42H173.752V34.104C173.752 33.464 173.68 32.928 173.536 32.496C173.392 32.064 173.176 31.744 172.888 31.536C172.6 31.312 172.232 31.2 171.784 31.2C171.144 31.2 170.64 31.376 170.272 31.728C169.904 32.064 169.64 32.56 169.48 33.216C169.336 33.872 169.264 34.68 169.264 35.64V42H166.072V28.992H168.52L168.976 30.696H169.12C169.36 30.248 169.656 29.88 170.008 29.592C170.376 29.304 170.792 29.096 171.256 28.968C171.736 28.824 172.232 28.752 172.744 28.752C173.656 28.752 174.416 28.92 175.024 29.256C175.648 29.576 176.128 30.08 176.464 30.768H176.632C177.032 30.064 177.56 29.552 178.216 29.232C178.888 28.912 179.6 28.752 180.352 28.752Z" fill="#505050"/>
<path d="M117.25 65H93.75L105.25 82.5L117.25 65Z" fill="#F9F9F9"/>
</svg>
