<svg width="237" height="81" viewBox="0 0 237 81" fill="none" xmlns="http://www.w3.org/2000/svg">
<rect x="8" y="8" width="221" height="65" rx="32.5" fill="white"/>
<rect x="8" y="8" width="221" height="65" rx="32.5" stroke="#505050"/>
<path d="M55.096 50H51.856V42.392H45.232V50H42.016V32.864H45.232V39.776H51.856V32.864H55.096V50ZM63.9494 36.752C65.0694 36.752 66.0294 36.992 66.8294 37.472C67.6454 37.936 68.2774 38.608 68.7254 39.488C69.1734 40.352 69.3974 41.408 69.3974 42.656V44.192H61.4294C61.4614 45.376 61.7494 46.296 62.2934 46.952C62.8534 47.592 63.6374 47.912 64.6454 47.912C65.4454 47.912 66.1574 47.832 66.7814 47.672C67.4054 47.496 68.0534 47.248 68.7254 46.928V49.352C68.1174 49.656 67.4854 49.88 66.8294 50.024C66.1734 50.168 65.3654 50.24 64.4054 50.24C63.1894 50.24 62.1094 50 61.1654 49.52C60.2374 49.024 59.5094 48.28 58.9814 47.288C58.4534 46.296 58.1894 45.064 58.1894 43.592C58.1894 42.104 58.4294 40.856 58.9094 39.848C59.3894 38.824 60.0614 38.056 60.9254 37.544C61.8054 37.016 62.8134 36.752 63.9494 36.752ZM63.9974 38.984C63.2774 38.984 62.6934 39.248 62.2454 39.776C61.8134 40.288 61.5574 41.056 61.4774 42.08H66.3734C66.3734 41.472 66.2854 40.936 66.1094 40.472C65.9334 40.008 65.6694 39.648 65.3174 39.392C64.9814 39.12 64.5414 38.984 63.9974 38.984ZM77.3344 36.752C78.9024 36.752 80.1024 37.12 80.9344 37.856C81.7664 38.576 82.1824 39.712 82.1824 41.264V50H79.9504L79.3264 48.2H79.2304C78.8784 48.664 78.5184 49.056 78.1504 49.376C77.7824 49.68 77.3584 49.896 76.8784 50.024C76.3984 50.168 75.8224 50.24 75.1504 50.24C74.4304 50.24 73.7824 50.096 73.2064 49.808C72.6304 49.52 72.1744 49.08 71.8384 48.488C71.5024 47.88 71.3344 47.12 71.3344 46.208C71.3344 44.864 71.7984 43.856 72.7264 43.184C73.6544 42.496 75.0464 42.12 76.9024 42.056L78.9904 41.984V41.336C78.9904 40.504 78.8144 39.912 78.4624 39.56C78.1104 39.208 77.6304 39.032 77.0224 39.032C76.4464 39.032 75.8624 39.128 75.2704 39.32C74.6944 39.512 74.1264 39.736 73.5664 39.992L72.5824 37.88C73.2384 37.544 73.9664 37.272 74.7664 37.064C75.5664 36.856 76.4224 36.752 77.3344 36.752ZM77.6464 43.904C76.5104 43.952 75.7184 44.184 75.2704 44.6C74.8224 45 74.5984 45.544 74.5984 46.232C74.5984 46.84 74.7504 47.28 75.0544 47.552C75.3744 47.824 75.7904 47.96 76.3024 47.96C77.0544 47.96 77.6944 47.712 78.2224 47.216C78.7504 46.704 79.0144 45.952 79.0144 44.96V43.856L77.6464 43.904ZM88.7481 50H85.5561V31.76H88.7481V50ZM95.4044 36.992V50H92.2364V36.992H95.4044ZM93.8444 31.976C94.3084 31.976 94.7084 32.096 95.0444 32.336C95.3804 32.56 95.5484 32.968 95.5484 33.56C95.5484 34.136 95.3804 34.552 95.0444 34.808C94.7084 35.048 94.3084 35.168 93.8444 35.168C93.3484 35.168 92.9324 35.048 92.5964 34.808C92.2604 34.552 92.0924 34.136 92.0924 33.56C92.0924 32.968 92.2604 32.56 92.5964 32.336C92.9324 32.096 93.3484 31.976 93.8444 31.976ZM105.709 36.752C107.069 36.752 108.141 37.128 108.925 37.88C109.709 38.632 110.101 39.848 110.101 41.528V50H106.909V42.128C106.909 41.152 106.741 40.424 106.405 39.944C106.069 39.448 105.541 39.2 104.821 39.2C103.749 39.2 103.021 39.584 102.637 40.352C102.253 41.104 102.061 42.2 102.061 43.64V50H98.8686V36.992H101.317L101.773 38.696H101.893C102.181 38.248 102.517 37.88 102.901 37.592C103.285 37.304 103.717 37.096 104.197 36.968C104.677 36.824 105.181 36.752 105.709 36.752ZM117.598 36.752C118.398 36.752 119.094 36.912 119.686 37.232C120.278 37.552 120.774 38.032 121.174 38.672H121.27L121.558 36.992H124.246V50.096C124.246 51.328 124.022 52.36 123.574 53.192C123.126 54.04 122.454 54.68 121.558 55.112C120.678 55.544 119.558 55.76 118.198 55.76C117.286 55.76 116.454 55.696 115.702 55.568C114.966 55.456 114.262 55.256 113.59 54.968V52.472C114.054 52.68 114.526 52.856 115.006 53C115.502 53.16 116.014 53.28 116.542 53.36C117.07 53.44 117.63 53.48 118.222 53.48C119.15 53.48 119.854 53.2 120.334 52.64C120.83 52.08 121.078 51.28 121.078 50.24V49.904C121.078 49.664 121.086 49.384 121.102 49.064C121.134 48.744 121.158 48.488 121.174 48.296H121.078C120.694 48.968 120.214 49.464 119.638 49.784C119.062 50.088 118.366 50.24 117.55 50.24C116.094 50.24 114.942 49.648 114.094 48.464C113.262 47.28 112.846 45.632 112.846 43.52C112.846 42.096 113.038 40.88 113.422 39.872C113.806 38.864 114.35 38.096 115.054 37.568C115.774 37.024 116.622 36.752 117.598 36.752ZM118.558 39.224C118.014 39.224 117.558 39.392 117.19 39.728C116.838 40.048 116.566 40.528 116.374 41.168C116.182 41.808 116.086 42.608 116.086 43.568C116.086 44.976 116.294 46.04 116.71 46.76C117.126 47.48 117.75 47.84 118.582 47.84C119.062 47.84 119.47 47.776 119.806 47.648C120.142 47.504 120.414 47.28 120.622 46.976C120.83 46.656 120.99 46.256 121.102 45.776C121.214 45.28 121.27 44.688 121.27 44V43.544C121.27 42.504 121.174 41.672 120.982 41.048C120.806 40.408 120.518 39.944 120.118 39.656C119.718 39.368 119.198 39.224 118.558 39.224ZM138.62 32.864C140.044 32.864 141.22 33.048 142.148 33.416C143.076 33.784 143.764 34.344 144.212 35.096C144.66 35.832 144.884 36.768 144.884 37.904C144.884 38.736 144.748 39.448 144.476 40.04C144.204 40.632 143.836 41.128 143.372 41.528C142.924 41.912 142.436 42.224 141.908 42.464L146.516 50H142.868L139.148 43.232H137.06V50H133.844V32.864H138.62ZM138.476 35.432H137.06V40.712H138.524C139.212 40.712 139.78 40.608 140.228 40.4C140.692 40.192 141.036 39.888 141.26 39.488C141.5 39.088 141.62 38.592 141.62 38C141.62 37.376 141.508 36.88 141.284 36.512C141.06 36.128 140.716 35.856 140.252 35.696C139.788 35.52 139.196 35.432 138.476 35.432ZM159.459 43.472C159.459 44.56 159.323 45.52 159.051 46.352C158.779 47.184 158.379 47.896 157.851 48.488C157.339 49.064 156.715 49.504 155.979 49.808C155.243 50.096 154.419 50.24 153.507 50.24C152.659 50.24 151.867 50.096 151.131 49.808C150.411 49.504 149.787 49.064 149.259 48.488C148.747 47.896 148.347 47.184 148.059 46.352C147.771 45.52 147.627 44.56 147.627 43.472C147.627 42.032 147.859 40.816 148.323 39.824C148.803 38.816 149.491 38.056 150.387 37.544C151.283 37.016 152.347 36.752 153.579 36.752C154.731 36.752 155.747 37.016 156.627 37.544C157.507 38.056 158.195 38.816 158.691 39.824C159.203 40.816 159.459 42.032 159.459 43.472ZM150.867 43.472C150.867 44.384 150.963 45.168 151.155 45.824C151.347 46.464 151.635 46.952 152.019 47.288C152.419 47.624 152.931 47.792 153.555 47.792C154.179 47.792 154.683 47.624 155.067 47.288C155.467 46.952 155.755 46.464 155.931 45.824C156.123 45.168 156.219 44.384 156.219 43.472C156.219 42.544 156.123 41.768 155.931 41.144C155.739 40.504 155.443 40.024 155.043 39.704C154.659 39.368 154.155 39.2 153.531 39.2C152.587 39.2 151.907 39.568 151.491 40.304C151.075 41.04 150.867 42.096 150.867 43.472ZM173.428 43.472C173.428 44.56 173.292 45.52 173.02 46.352C172.748 47.184 172.348 47.896 171.82 48.488C171.308 49.064 170.684 49.504 169.948 49.808C169.212 50.096 168.388 50.24 167.476 50.24C166.628 50.24 165.836 50.096 165.1 49.808C164.38 49.504 163.756 49.064 163.228 48.488C162.716 47.896 162.316 47.184 162.028 46.352C161.74 45.52 161.596 44.56 161.596 43.472C161.596 42.032 161.828 40.816 162.292 39.824C162.772 38.816 163.46 38.056 164.356 37.544C165.252 37.016 166.316 36.752 167.548 36.752C168.7 36.752 169.716 37.016 170.596 37.544C171.476 38.056 172.164 38.816 172.66 39.824C173.172 40.816 173.428 42.032 173.428 43.472ZM164.836 43.472C164.836 44.384 164.932 45.168 165.124 45.824C165.316 46.464 165.604 46.952 165.988 47.288C166.388 47.624 166.9 47.792 167.524 47.792C168.148 47.792 168.652 47.624 169.036 47.288C169.436 46.952 169.724 46.464 169.9 45.824C170.092 45.168 170.188 44.384 170.188 43.472C170.188 42.544 170.092 41.768 169.9 41.144C169.708 40.504 169.412 40.024 169.012 39.704C168.628 39.368 168.124 39.2 167.5 39.2C166.556 39.2 165.876 39.568 165.46 40.304C165.044 41.04 164.836 42.096 164.836 43.472ZM190.492 36.752C191.9 36.752 192.956 37.128 193.66 37.88C194.364 38.632 194.716 39.848 194.716 41.528V50H191.572V42.104C191.572 41.144 191.412 40.424 191.092 39.944C190.772 39.448 190.276 39.2 189.604 39.2C188.676 39.2 188.02 39.544 187.636 40.232C187.252 40.92 187.06 41.92 187.06 43.232V50H183.892V42.104C183.892 41.464 183.82 40.928 183.676 40.496C183.532 40.064 183.316 39.744 183.028 39.536C182.74 39.312 182.372 39.2 181.924 39.2C181.284 39.2 180.78 39.376 180.412 39.728C180.044 40.064 179.78 40.56 179.62 41.216C179.476 41.872 179.404 42.68 179.404 43.64V50H176.212V36.992H178.66L179.116 38.696H179.26C179.5 38.248 179.796 37.88 180.148 37.592C180.516 37.304 180.932 37.096 181.396 36.968C181.876 36.824 182.372 36.752 182.884 36.752C183.796 36.752 184.556 36.92 185.164 37.256C185.788 37.576 186.268 38.08 186.604 38.768H186.772C187.172 38.064 187.7 37.552 188.356 37.232C189.028 36.912 189.74 36.752 190.492 36.752Z" fill="#505050"/>
</svg>
