<svg width="220" height="83" viewBox="0 0 220 83" fill="none" xmlns="http://www.w3.org/2000/svg">
<rect width="220" height="65" rx="32.5" fill="#F9F9F9"/>
<path d="M32.976 42L28.8 27.96H28.704C28.72 28.28 28.744 28.736 28.776 29.328C28.808 29.904 28.832 30.536 28.848 31.224C28.88 31.896 28.896 32.528 28.896 33.12V42H26.016V24.864H30.432L34.512 38.328H34.584L38.736 24.864H43.176V42H40.152V32.976C40.152 32.432 40.16 31.84 40.176 31.2C40.192 30.544 40.216 29.928 40.248 29.352C40.28 28.76 40.304 28.304 40.32 27.984H40.224L35.928 42H32.976ZM52.0275 28.752C53.1475 28.752 54.1075 28.992 54.9075 29.472C55.7235 29.936 56.3555 30.608 56.8035 31.488C57.2515 32.352 57.4755 33.408 57.4755 34.656V36.192H49.5075C49.5395 37.376 49.8275 38.296 50.3715 38.952C50.9315 39.592 51.7155 39.912 52.7235 39.912C53.5235 39.912 54.2355 39.832 54.8595 39.672C55.4835 39.496 56.1315 39.248 56.8035 38.928V41.352C56.1955 41.656 55.5635 41.88 54.9075 42.024C54.2515 42.168 53.4435 42.24 52.4835 42.24C51.2675 42.24 50.1875 42 49.2435 41.52C48.3155 41.024 47.5875 40.28 47.0595 39.288C46.5315 38.296 46.2675 37.064 46.2675 35.592C46.2675 34.104 46.5075 32.856 46.9875 31.848C47.4675 30.824 48.1395 30.056 49.0035 29.544C49.8835 29.016 50.8915 28.752 52.0275 28.752ZM52.0755 30.984C51.3555 30.984 50.7715 31.248 50.3235 31.776C49.8915 32.288 49.6355 33.056 49.5555 34.08H54.4515C54.4515 33.472 54.3635 32.936 54.1875 32.472C54.0115 32.008 53.7475 31.648 53.3955 31.392C53.0595 31.12 52.6195 30.984 52.0755 30.984ZM64.2366 42.24C62.8446 42.24 61.7166 41.68 60.8526 40.56C59.9886 39.424 59.5566 37.744 59.5566 35.52C59.5566 33.296 59.9966 31.616 60.8766 30.48C61.7566 29.328 62.9086 28.752 64.3326 28.752C64.9246 28.752 65.4366 28.84 65.8686 29.016C66.3166 29.176 66.7006 29.4 67.0206 29.688C67.3406 29.976 67.6206 30.296 67.8606 30.648H67.9566C67.9246 30.424 67.8846 30.08 67.8366 29.616C67.7886 29.152 67.7646 28.72 67.7646 28.32V23.76H70.9566V42H68.5086L67.9086 40.296H67.7646C67.5566 40.648 67.2926 40.976 66.9726 41.28C66.6526 41.568 66.2686 41.8 65.8206 41.976C65.3726 42.152 64.8446 42.24 64.2366 42.24ZM65.2926 39.792C66.2686 39.792 66.9566 39.472 67.3566 38.832C67.7566 38.192 67.9566 37.224 67.9566 35.928V35.544C67.9566 34.136 67.7646 33.064 67.3806 32.328C66.9966 31.592 66.2926 31.224 65.2686 31.224C64.4686 31.224 63.8526 31.608 63.4206 32.376C63.0046 33.128 62.7966 34.192 62.7966 35.568C62.7966 36.944 63.0126 37.992 63.4446 38.712C63.8766 39.432 64.4926 39.792 65.2926 39.792ZM77.5997 28.992V42H74.4317V28.992H77.5997ZM76.0397 23.976C76.5037 23.976 76.9037 24.096 77.2397 24.336C77.5757 24.56 77.7437 24.968 77.7437 25.56C77.7437 26.136 77.5757 26.552 77.2397 26.808C76.9037 27.048 76.5037 27.168 76.0397 27.168C75.5437 27.168 75.1277 27.048 74.7917 26.808C74.4557 26.552 74.2877 26.136 74.2877 25.56C74.2877 24.968 74.4557 24.56 74.7917 24.336C75.1277 24.096 75.5437 23.976 76.0397 23.976ZM86.2479 42.24C85.0479 42.24 84.0079 42.008 83.1279 41.544C82.2639 41.064 81.5919 40.336 81.1119 39.36C80.6479 38.368 80.4159 37.104 80.4159 35.568C80.4159 33.968 80.6719 32.672 81.1839 31.68C81.7119 30.672 82.4319 29.936 83.3439 29.472C84.2719 28.992 85.3199 28.752 86.4879 28.752C87.2239 28.752 87.9119 28.832 88.5519 28.992C89.2079 29.152 89.7519 29.344 90.1839 29.568L89.2239 31.896C88.7919 31.72 88.3599 31.568 87.9279 31.44C87.4959 31.312 87.0639 31.248 86.6319 31.248C85.9759 31.248 85.4319 31.408 84.9999 31.728C84.5679 32.048 84.2319 32.528 83.9919 33.168C83.7679 33.792 83.6559 34.584 83.6559 35.544C83.6559 36.472 83.7679 37.248 83.9919 37.872C84.2319 38.496 84.5679 38.968 84.9999 39.288C85.4319 39.592 85.9599 39.744 86.5839 39.744C87.2079 39.744 87.7839 39.656 88.3119 39.48C88.8559 39.304 89.3679 39.064 89.8479 38.76V41.376C89.3519 41.68 88.8239 41.896 88.2639 42.024C87.7039 42.168 87.0319 42.24 86.2479 42.24ZM95.7872 28.992V42H92.6192V28.992H95.7872ZM94.2272 23.976C94.6912 23.976 95.0912 24.096 95.4272 24.336C95.7632 24.56 95.9312 24.968 95.9312 25.56C95.9312 26.136 95.7632 26.552 95.4272 26.808C95.0912 27.048 94.6912 27.168 94.2272 27.168C93.7312 27.168 93.3152 27.048 92.9792 26.808C92.6432 26.552 92.4752 26.136 92.4752 25.56C92.4752 24.968 92.6432 24.56 92.9792 24.336C93.3152 24.096 93.7312 23.976 94.2272 23.976ZM106.091 28.752C107.451 28.752 108.523 29.128 109.307 29.88C110.091 30.632 110.483 31.848 110.483 33.528V42H107.291V34.128C107.291 33.152 107.123 32.424 106.787 31.944C106.451 31.448 105.923 31.2 105.203 31.2C104.131 31.2 103.403 31.584 103.019 32.352C102.635 33.104 102.443 34.2 102.443 35.64V42H99.2514V28.992H101.699L102.155 30.696H102.275C102.563 30.248 102.899 29.88 103.283 29.592C103.667 29.304 104.099 29.096 104.579 28.968C105.059 28.824 105.563 28.752 106.091 28.752ZM118.988 28.752C120.108 28.752 121.068 28.992 121.868 29.472C122.684 29.936 123.316 30.608 123.764 31.488C124.212 32.352 124.436 33.408 124.436 34.656V36.192H116.468C116.5 37.376 116.788 38.296 117.332 38.952C117.892 39.592 118.676 39.912 119.684 39.912C120.484 39.912 121.196 39.832 121.82 39.672C122.444 39.496 123.092 39.248 123.764 38.928V41.352C123.156 41.656 122.524 41.88 121.868 42.024C121.212 42.168 120.404 42.24 119.444 42.24C118.228 42.24 117.148 42 116.204 41.52C115.276 41.024 114.548 40.28 114.02 39.288C113.492 38.296 113.228 37.064 113.228 35.592C113.228 34.104 113.468 32.856 113.948 31.848C114.428 30.824 115.1 30.056 115.964 29.544C116.844 29.016 117.852 28.752 118.988 28.752ZM119.036 30.984C118.316 30.984 117.732 31.248 117.284 31.776C116.852 32.288 116.596 33.056 116.516 34.08H121.412C121.412 33.472 121.324 32.936 121.148 32.472C120.972 32.008 120.708 31.648 120.356 31.392C120.02 31.12 119.58 30.984 119.036 30.984ZM138.089 24.864C139.513 24.864 140.689 25.048 141.617 25.416C142.545 25.784 143.233 26.344 143.681 27.096C144.129 27.832 144.353 28.768 144.353 29.904C144.353 30.736 144.217 31.448 143.945 32.04C143.673 32.632 143.305 33.128 142.841 33.528C142.393 33.912 141.905 34.224 141.377 34.464L145.985 42H142.337L138.617 35.232H136.529V42H133.313V24.864H138.089ZM137.945 27.432H136.529V32.712H137.993C138.681 32.712 139.249 32.608 139.697 32.4C140.161 32.192 140.505 31.888 140.729 31.488C140.969 31.088 141.089 30.592 141.089 30C141.089 29.376 140.977 28.88 140.753 28.512C140.529 28.128 140.185 27.856 139.721 27.696C139.257 27.52 138.665 27.432 137.945 27.432ZM158.928 35.472C158.928 36.56 158.792 37.52 158.52 38.352C158.248 39.184 157.848 39.896 157.32 40.488C156.808 41.064 156.184 41.504 155.448 41.808C154.712 42.096 153.888 42.24 152.976 42.24C152.128 42.24 151.336 42.096 150.6 41.808C149.88 41.504 149.256 41.064 148.728 40.488C148.216 39.896 147.816 39.184 147.528 38.352C147.24 37.52 147.096 36.56 147.096 35.472C147.096 34.032 147.328 32.816 147.792 31.824C148.272 30.816 148.96 30.056 149.856 29.544C150.752 29.016 151.816 28.752 153.048 28.752C154.2 28.752 155.216 29.016 156.096 29.544C156.976 30.056 157.664 30.816 158.16 31.824C158.672 32.816 158.928 34.032 158.928 35.472ZM150.336 35.472C150.336 36.384 150.432 37.168 150.624 37.824C150.816 38.464 151.104 38.952 151.488 39.288C151.888 39.624 152.4 39.792 153.024 39.792C153.648 39.792 154.152 39.624 154.536 39.288C154.936 38.952 155.224 38.464 155.4 37.824C155.592 37.168 155.688 36.384 155.688 35.472C155.688 34.544 155.592 33.768 155.4 33.144C155.208 32.504 154.912 32.024 154.512 31.704C154.128 31.368 153.624 31.2 153 31.2C152.056 31.2 151.376 31.568 150.96 32.304C150.544 33.04 150.336 34.096 150.336 35.472ZM172.896 35.472C172.896 36.56 172.76 37.52 172.488 38.352C172.216 39.184 171.816 39.896 171.288 40.488C170.776 41.064 170.152 41.504 169.416 41.808C168.68 42.096 167.856 42.24 166.944 42.24C166.096 42.24 165.304 42.096 164.568 41.808C163.848 41.504 163.224 41.064 162.696 40.488C162.184 39.896 161.784 39.184 161.496 38.352C161.208 37.52 161.064 36.56 161.064 35.472C161.064 34.032 161.296 32.816 161.76 31.824C162.24 30.816 162.928 30.056 163.824 29.544C164.72 29.016 165.784 28.752 167.016 28.752C168.168 28.752 169.184 29.016 170.064 29.544C170.944 30.056 171.632 30.816 172.128 31.824C172.64 32.816 172.896 34.032 172.896 35.472ZM164.304 35.472C164.304 36.384 164.4 37.168 164.592 37.824C164.784 38.464 165.072 38.952 165.456 39.288C165.856 39.624 166.368 39.792 166.992 39.792C167.616 39.792 168.12 39.624 168.504 39.288C168.904 38.952 169.192 38.464 169.368 37.824C169.56 37.168 169.656 36.384 169.656 35.472C169.656 34.544 169.56 33.768 169.368 33.144C169.176 32.504 168.88 32.024 168.48 31.704C168.096 31.368 167.592 31.2 166.968 31.2C166.024 31.2 165.344 31.568 164.928 32.304C164.512 33.04 164.304 34.096 164.304 35.472ZM189.961 28.752C191.369 28.752 192.425 29.128 193.129 29.88C193.833 30.632 194.185 31.848 194.185 33.528V42H191.041V34.104C191.041 33.144 190.881 32.424 190.561 31.944C190.241 31.448 189.745 31.2 189.073 31.2C188.145 31.2 187.489 31.544 187.105 32.232C186.721 32.92 186.529 33.92 186.529 35.232V42H183.361V34.104C183.361 33.464 183.289 32.928 183.145 32.496C183.001 32.064 182.785 31.744 182.497 31.536C182.209 31.312 181.841 31.2 181.393 31.2C180.753 31.2 180.249 31.376 179.881 31.728C179.513 32.064 179.249 32.56 179.089 33.216C178.945 33.872 178.873 34.68 178.873 35.64V42H175.681V28.992H178.129L178.585 30.696H178.729C178.969 30.248 179.265 29.88 179.617 29.592C179.985 29.304 180.401 29.096 180.865 28.968C181.345 28.824 181.841 28.752 182.353 28.752C183.265 28.752 184.025 28.92 184.633 29.256C185.257 29.576 185.737 30.08 186.073 30.768H186.241C186.641 30.064 187.169 29.552 187.825 29.232C188.497 28.912 189.209 28.752 189.961 28.752Z" fill="#505050"/>
<path d="M121.75 65H98.25L109.75 82.5L121.75 65Z" fill="#F9F9F9"/>
</svg>
