<?xml version="1.0" encoding="UTF-8"?>
<svg id="ocean" data-name="图层 2" xmlns="http://www.w3.org/2000/svg" viewBox="0 0 1482.53 907.45">
  <defs>
    <style>
      .wave-1 {
        fill: #a1f8fa;
        opacity: .38;
      }

      .wave-1, .wave-2, .wave-3 {
        stroke-width: 0px;
      }

      .wave-2 {
        fill: #b7e3eb;
      }

      .wave-3 {
        fill: #dff8fa;
        opacity: .51;
      }

    
    </style>
  </defs>
  <g id="ocean-waves" data-name="图层 1">
    <g>
      <!-- <g> -->
        <path class="wave-1" d="M359.16,849.29c-4.2-.42-8.43-.75-12.58-1.31-3.01-.4-5.99-1.01-8.88-1.71-3.42-.83-6.02-2.52-6.14-4.91-.11-2.28,1.52-4.61,4.89-5.52,5.33-1.44,10.94-2.47,16.48-3.56,2.76-.54,6.45-.69,6.57-2.94.13-2.36-3.66-2.87-6.4-2.98-9.32-.37-18.67-.49-28.01-.66-7.31-.13-14.64.03-21.92-.32-5.84-.28-10.84-3.54-11.22-7.23-.11-1.08,1.59-2.64,3.13-3.33,6.14-2.74,13.09-4.35,20.37-5.09,7.88-.79,15.84-1.39,23.8-1.72,11.25-.47,22.54-.65,33.81-.89,8.84-.19,17.68-.29,26.52-.45,7.52-.13,15.06-.52,22.56-.34,4.71.11,9.49.79,14.01,1.7,5.52,1.11,7.76,4.74,4.71,7.46-1.38,1.23-3.98,2.29-6.28,2.6-10.93,1.47-21.95,2.65-32.94,3.93-3.84.45-7.58,1.02-9.88,3.12,1.08,1.38,2.63,2.59,2.94,3.92.78,3.4-1.28,5.61-6.21,7-3.21.91-6.58,1.57-10.32,2.44,2.79.51,5.32.77,7.58,1.44,1.69.5,4.25,1.53,4.24,2.31-.02,1.4-1.2,3.11-2.76,4.11-3.61,2.29-8.66,2.05-13.27,2.49-1.68.16-3.38.29-5.06.43-3.24,0-6.48,0-9.72,0Z"/>
        <path class="wave-1" d="M1354.11,412.6c-4.2-.42-8.43-.75-12.58-1.31-3.01-.4-5.99-1.01-8.88-1.71-3.42-.83-6.02-2.52-6.14-4.91-.11-2.28,1.52-4.61,4.89-5.52,5.33-1.44,10.94-2.47,16.48-3.56,2.76-.54,6.45-.69,6.57-2.94.13-2.36-3.66-2.87-6.4-2.98-9.32-.37-18.67-.49-28.01-.66-7.31-.13-14.64.03-21.92-.32-5.84-.28-10.84-3.54-11.22-7.23-.11-1.08,1.59-2.64,3.13-3.33,6.14-2.74,13.09-4.35,20.37-5.09,7.88-.79,15.84-1.39,23.8-1.72,11.25-.47,22.54-.65,33.81-.89,8.84-.19,17.68-.29,26.52-.45,7.52-.13,15.06-.52,22.56-.34,4.71.11,9.49.79,14.01,1.7,5.52,1.11,7.76,4.74,4.71,7.46-1.38,1.23-3.98,2.29-6.28,2.6-10.93,1.47-21.95,2.65-32.94,3.93-3.84.45-7.58,1.02-9.88,3.12,1.08,1.38,2.63,2.59,2.94,3.92.78,3.4-1.28,5.61-6.21,7-3.21.91-6.58,1.57-10.32,2.44,2.79.51,5.32.77,7.58,1.44,1.69.5,4.25,1.53,4.24,2.31-.02,1.4-1.2,3.11-2.76,4.11-3.61,2.29-8.66,2.05-13.27,2.49-1.68.16-3.38.29-5.06.43-3.24,0-6.48,0-9.72,0Z"/>
        <path class="wave-1" d="M213.96,667.93c-4.06,4.21-11.92,6.14-20.5,7.55-18.08,2.96-36.62,3.83-55.76,3.23-15.96-.5-31.51-1.52-46.34-4.4-7.94-1.54-15.9-3.16-19.82-7.22-.36-.37-.57-.78-.94-1.28-9.2,0-18.5.22-27.72-.06-8.99-.28-18.02-.83-26.82-1.73-6.12-.62-11.4-2.38-14.6-5.11-2.04-1.73-2.11-3.45.87-5.07,7.1-3.87,16.69-5.38,26.78-6.3,4.47-.41,9.13-.37,13.71-.46,12.93-.28,25.9-.95,38.79-.68,14.03.29,28.45-.2,41.86,2.65,9.61,2.04,9.49,5.47,4.91,8.94-.74.56-1.59,1.09-2.1,1.44,16.97,0,33.83-.12,50.67.06,7.04.08,14.1.68,21.07,1.26,6.02.5,11.5,1.7,15.94,3.79v3.41Z"/>
        <path class="wave-1" d="M306.17,370.48c-4.06,4.21-11.92,6.14-20.5,7.55-18.08,2.96-36.62,3.83-55.76,3.23-15.96-.5-31.51-1.52-46.34-4.4-7.94-1.54-15.9-3.16-19.82-7.22-.36-.37-.57-.78-.94-1.28-9.2,0-18.5.22-27.72-.06-8.99-.28-18.02-.83-26.82-1.73-6.12-.62-11.4-2.38-14.6-5.11-2.04-1.73-2.11-3.45.87-5.07,7.1-3.87,16.69-5.38,26.78-6.3,4.47-.41,9.13-.37,13.71-.46,12.93-.28,25.9-.95,38.79-.68,14.03.29,28.45-.2,41.86,2.65,9.61,2.04,9.49,5.47,4.91,8.94-.74.56-1.59,1.09-2.1,1.44,16.97,0,33.83-.12,50.67.06,7.04.08,14.1.68,21.07,1.26,6.02.5,11.5,1.7,15.94,3.79v3.41Z"/>
        <path class="wave-1" d="M1170.66,802.53c15.3,0,32.77-.05,50.24.01,20.47.08,40.94.13,61.39.48,7.88.14,15.79.87,23.49,1.73,3.39.37,6.95,1.44,9.29,2.67,5.87,3.11,2.13,6.91-3.56,8.94-5.76,2.05-12.51,3.17-19.82,3.19-11.3.04-22.65.28-33.91-.07-12.97-.39-25.85-1.59-38.82-1.94-10.89-.29-21.87.13-32.81.29-4.44.07-8.88.32-13.32.43-6.68.17-13.38.24-20.06.45-6.05.19-12.08.58-18.13.78-7.45.24-14.83.02-21.64-1.63-10.3-2.49-8.36-8.33-.66-10.14,6.51-1.53,13.58-2.83,20.7-3.39,11.67-.93,23.57-1.18,37.61-1.82Z"/>
        <path class="wave-1" d="M96.2,11.97c15.3.2,32.77.3,50.23.69,20.46.45,40.94.83,61.37,1.9,7.87.41,15.76,2.2,23.45,4.24,3.38.9,6.92,3.37,9.22,6.22,5.79,7.18,1.95,15.79-3.8,20.35-5.81,4.61-12.59,7.06-19.91,7.02-11.3-.06-22.65.33-33.9-.59-12.96-1.07-25.8-3.97-38.77-4.92-10.88-.8-21.87,0-32.81.23-4.45.09-8.88.61-13.33.81-6.69.3-13.39.37-20.07.77-6.06.36-12.09,1.18-18.15,1.54-7.46.45-14.83-.15-21.59-4-10.23-5.82-8.14-19.12-.39-23.14,6.55-3.4,13.65-6.27,20.79-7.47,11.69-1.96,23.6-2.38,37.66-3.65Z"/>
        <path class="wave-1" d="M1311.66,890.3c15.3,0,32.77-.05,50.24.01,20.47.08,40.94.13,61.39.48,7.88.14,15.79.87,23.49,1.73,3.39.37,6.95,1.44,9.29,2.67,5.87,3.11,2.13,6.91-3.56,8.94-5.76,2.05-12.51,3.17-19.82,3.19-11.3.04-22.65.28-33.91-.07-12.97-.39-25.85-1.59-38.82-1.94-10.89-.29-21.87.13-32.81.29-4.44.07-8.88.32-13.32.43-6.68.17-13.38.24-20.06.45-6.05.19-12.08.58-18.13.78-7.45.24-14.83.02-21.64-1.63-10.3-2.49-8.36-8.33-.66-10.14,6.51-1.53,13.58-2.83,20.7-3.39,11.67-.93,23.57-1.18,37.61-1.82Z"/>
        <path class="wave-1" d="M1436.99,133.3c8.83,0,17.67-.09,26.49.04,4.09.06,8.23.37,12.19.86,5.23.64,7.69,2.69,6.61,5.17-1.43,3.31-5.36,5.65-12.62,6.25-8.33.68-16.7,1.45-25.11,1.66-18.65.47-37.33.82-56,.8-8.65-.01-17.32-.95-25.93-1.64-2.2-.18-4.63-.8-6.16-1.57-3.92-1.97-5.07-3.41-.68-5.86,5.06-2.83,12.3-3.63,19.46-3.96,20.52-.94,41.09-1.61,61.64-2.38.04.21.07.41.11.62Z"/>
        <path class="wave-1" d="M1107.52.53c8.83,0,17.67-.07,26.49.03,4.09.05,8.23.32,12.19.73,5.23.55,7.69,2.29,6.61,4.41-1.43,2.82-5.36,4.81-12.62,5.32-8.33.58-16.7,1.23-25.11,1.41-18.65.4-37.33.7-56,.68-8.65-.01-17.32-.81-25.93-1.39-2.2-.15-4.63-.68-6.16-1.33-3.92-1.68-5.07-2.9-.68-4.99,5.06-2.41,12.3-3.09,19.46-3.37,20.52-.8,41.09-1.37,61.64-2.03.04.18.07.35.11.53Z"/>
        <path class="wave-1" d="M786.95,44.87c8.83,0,17.67-.12,26.49.05,4.09.08,8.23.51,12.19,1.18,5.23.88,7.69,3.68,6.61,7.09-1.43,4.54-5.36,7.74-12.62,8.56-8.33.94-16.7,1.99-25.11,2.28-18.65.64-37.33,1.13-56,1.09-8.65-.02-17.32-1.3-25.93-2.24-2.2-.24-4.63-1.09-6.16-2.15-3.92-2.7-5.07-4.67-.68-8.03,5.06-3.88,12.3-4.98,19.46-5.43,20.52-1.29,41.09-2.2,61.64-3.27.04.28.07.57.11.85Z"/>
        <path class="wave-1" d="M963.7,192.62c-4.2-.42-8.43-.75-12.58-1.31-3.01-.4-5.99-1.01-8.88-1.71-3.42-.83-6.02-2.52-6.14-4.91-.11-2.28,1.52-4.61,4.89-5.52,5.33-1.44,10.94-2.47,16.48-3.56,2.76-.54,6.45-.69,6.57-2.94.13-2.36-3.66-2.87-6.4-2.98-9.32-.37-18.67-.49-28.01-.66-7.31-.13-14.64.03-21.92-.32-5.84-.28-10.84-3.54-11.22-7.23-.11-1.08,1.59-2.64,3.13-3.33,6.14-2.74,13.09-4.35,20.37-5.09,7.88-.79,15.84-1.39,23.8-1.72,11.25-.47,22.54-.65,33.81-.89,8.84-.19,17.68-.29,26.52-.45,7.52-.13,15.06-.52,22.56-.34,4.71.11,9.49.79,14.01,1.7,5.52,1.11,7.76,4.74,4.71,7.46-1.38,1.23-3.98,2.29-6.28,2.6-10.93,1.47-21.95,2.65-32.94,3.93-3.84.45-7.58,1.02-9.88,3.12,1.08,1.38,2.63,2.59,2.94,3.92.78,3.4-1.28,5.61-6.21,7-3.21.91-6.58,1.57-10.32,2.44,2.79.51,5.32.77,7.58,1.44,1.69.5,4.25,1.53,4.24,2.31-.02,1.4-1.2,3.11-2.76,4.11-3.61,2.29-8.66,2.05-13.27,2.49-1.68.16-3.38.29-5.06.43-3.24,0-6.48,0-9.72,0Z"/>
        <path class="wave-1" d="M426.72,561.07c-4.2-.42-8.43-.75-12.58-1.31-3.01-.4-5.99-1.01-8.88-1.71-3.42-.83-6.02-2.52-6.14-4.91-.11-2.28,1.52-4.61,4.89-5.52,5.33-1.44,10.94-2.47,16.48-3.56,2.76-.54,6.45-.69,6.57-2.94.13-2.36-3.66-2.87-6.4-2.98-9.32-.37-18.67-.49-28.01-.66-7.31-.13-14.64.03-21.92-.32-5.84-.28-10.84-3.54-11.22-7.23-.11-1.08,1.59-2.64,3.13-3.33,6.14-2.74,13.09-4.35,20.37-5.09,7.88-.79,15.84-1.39,23.8-1.72,11.25-.47,22.54-.65,33.81-.89,8.84-.19,17.68-.29,26.52-.45,7.52-.13,15.06-.52,22.56-.34,4.71.11,9.49.79,14.01,1.7,5.52,1.11,7.76,4.74,4.71,7.46-1.38,1.23-3.98,2.29-6.28,2.6-10.93,1.47-21.95,2.65-32.94,3.93-3.84.45-7.58,1.02-9.88,3.12,1.08,1.38,2.63,2.59,2.94,3.92.78,3.4-1.28,5.61-6.21,7-3.21.91-6.58,1.57-10.32,2.44,2.79.51,5.32.77,7.58,1.44,1.69.5,4.25,1.53,4.24,2.31-.02,1.4-1.2,3.11-2.76,4.11-3.61,2.29-8.66,2.05-13.27,2.49-1.68.16-3.38.29-5.06.43-3.24,0-6.48,0-9.72,0Z"/>
        <!-- </g> -->
        <path class="wave-3" d="M1392.42,303.37c-.36.51-.9,1.11-1.49,1.74l-.71-22.26c-.4-12.49-1.44-24.61-9.7-35.66-10.17-13.62-33.81-20.61-43.51-22.98-1.36-.33-2.76-.65-4.11-.96-7.54-1.71-15.34-3.48-20.62-8.82-7.23-7.31-7.21-18.21-7.19-28.75v-1.66c0-13.31,0-38.1-13.25-51.43-6.53-6.58-15.35-9.13-21.6-10.11-3.33-.52-6.61-.75-9.79-.98-3.65-.26-7.42-.53-11.18-1.24-3.68-.7-6.22-1.98-7.55-3.83-1.13-1.56-1.22-3.39-1.16-4.96.11-2.85.79-5.63,1.52-8.57,1.28-5.2,2.61-10.57.75-16.67-.18-.6-.39-1.21-.59-1.81-.74-2.18-1.65-4.9-.87-6.02l.03-.04c.24-.32.7-.45,1.04-.5,1.4-.21,3.35.42,4.85,1.56,5.92,4.49,5.22,9.43,4.4,15.14-.67,4.69-1.36,9.54,1.94,13.98,2.04,2.75,5.32,4.24,7.61,5.13,5.04,1.95,10.25,3.04,15.29,4.09,8.56,1.79,16.64,3.48,23.72,9.09,3.68,2.92,7.2,7.14,9.43,11.29,1.81,3.37,3.65,8.3,2.12,12.64-.19.54-.4,1.09-.6,1.64-1.15,3.06-2.46,6.52-1.45,10.22.56,2.06,1.73,3.78,2.86,5.44.88,1.3,1.72,2.53,2.2,3.83,1.23,3.28.14,6.67-1.02,10.26-.73,2.28-1.49,4.65-1.72,7.13-.64,7.13,2.24,16.1,8.99,19.45,10.71,5.31,22.49,8.57,34.08,9.43,5.79.43,16.35,2.19,21.99,9.06.97,1.19,1.73,2.54,2.53,3.98.44.79.89,1.6,1.39,2.39,1.9,3.04,4.36,5.67,6.74,8.21,1.31,1.4,2.67,2.85,3.89,4.33,2.25,2.72,5.88,8.03,4.97,12.98-.25,1.36-.83,2.7-1.44,4.13-1.1,2.56-2.34,5.46-1.54,8.71.46,1.85,1.48,3.37,2.47,4.84.6.9,1.18,1.76,1.58,2.63,2.24,4.8-1.71,16.9-5.08,23.56-.06.11-.13.24-.23.38Z"/>
        <path class="wave-3" d="M256.12,656.92c-8.93-3.1-16.71-9.43-21.54-17.56-14.58-24.5-1.72-60.4-20.9-81.5-10-11.01-25.74-14.22-38.93-21.08-18.81-9.78-32.67-27.36-41.64-46.58-8.97-19.21-13.52-40.15-17.63-60.95-2.43,24.22,3.25,49.19,15.92,69.98,12.67,20.79,32.26,37.28,54.9,46.22,7.56,2.99,15.83,5.4,21.24,11.48,5.64,6.34,6.95,15.36,7.4,23.83.9,16.93-.65,34.16,3.31,50.64,3.96,16.48,15.17,32.75,31.77,36.19,9.02,1.87,20.36-.39,28.39,4.94,4.64,3.08,10.16,18.31,17.25,11.31,5.65-5.58-2.99-15.21-7.26-18.01-9.55-6.25-21.79-5.28-32.29-8.92Z"/>
        <path class="wave-2" d="M69.51,284.92c8.29-2.11,7.14-13.97,10.35-20.18,36.86-63.03-29.88,5.04-10.35,20.18ZM89.1,240.42c.61-.04.83.76-.08,1.17.03-.48.06-.82.08-1.17ZM74.81,257.85c.3-.02-.2.64-.32.6.11-.2.21-.4.32-.6ZM74.5,259.05c.52.53.15.62-.32,1.1-.29-.18.17-.62.32-1.1ZM75.63,259.7c-.31.53-.62,1.07-1.01,1.75-.09-1,.14-1.44,1.01-1.75ZM73.94,260.49c.25.8-.69,1.08-.89,1.61-.03-.62.22-1.14.89-1.61ZM69.89,280.76c.15-.11.37-.54.48-.37-.16.14-.36.61-.48.37Z"/>
        <path class="wave-2" d="M1440.33,48.16c-1.47-5.08-38.71,1.13-45.91.43-2.99.18-11.1,3.79-4.22,5.51,2.36.51,7.75-.45,2.66-.32-20.2-3.42,73.34-10.61,37.85-1.55-7.67,3.16-30.88.21-33.79,2.46,5.5-.42,45.79,2.93,43.41-6.52Z"/>
        <path class="wave-2" d="M85.22,451.31c-1.47-5.08-38.71,1.13-45.91.43-2.99.18-11.1,3.79-4.22,5.51,2.36.51,7.75-.45,2.66-.32-20.2-3.42,73.34-10.61,37.85-1.55-7.67,3.16-30.88.21-33.79,2.46,5.5-.42,45.79,2.93,43.41-6.52Z"/>
        <path class="wave-2" d="M1023.59,115.35c-1.47-5.08-38.71,1.13-45.91.43-2.99.18-11.1,3.79-4.22,5.51,2.36.51,7.75-.45,2.66-.32-20.2-3.42,73.34-10.61,37.85-1.55-7.67,3.16-30.88.21-33.79,2.46,5.5-.42,45.79,2.93,43.41-6.52Z"/>
        <path class="wave-2" d="M414.78,768.24c-1.47-5.08-38.71,1.13-45.91.43-2.99.18-11.1,3.79-4.22,5.51,2.36.51,7.75-.45,2.66-.32-20.2-3.42,73.34-10.61,37.85-1.55-7.67,3.16-30.88.21-33.79,2.46,5.5-.42,45.79,2.93,43.41-6.52Z"/>
        <path class="wave-2" d="M1223.08,762.71c-1.47-5.08-38.71,1.13-45.91.43-2.99.18-11.1,3.79-4.22,5.51,2.36.51,7.75-.45,2.66-.32-20.2-3.42,73.34-10.61,37.85-1.55-7.67,3.16-30.88.21-33.79,2.46,5.5-.42,45.79,2.93,43.41-6.52Z"/>
    </g>
  </g>
</svg>