<?xml version="1.0" encoding="UTF-8"?>
<svg xmlns="http://www.w3.org/2000/svg" viewBox="0 0 108.77 133.58">
  <defs>
    <style>
      .cls-1 {
        fill: #646868;
      }

      .cls-1, .cls-2, .cls-3, .cls-4 {
        stroke-width: 0px;
      }

      .cls-5 {
        isolation: isolate;
      }

      .cls-2, .cls-3 {
        fill: #7d8182;
      }

      .cls-3 {
        mix-blend-mode: multiply;
      }

      .cls-3, .cls-4 {
        opacity: .4;
      }

      .cls-4 {
        fill: #2d7687;
      }
    </style>
  </defs>
  <g class="cls-5">
    <g id="_图层_2" data-name="图层 2">
      <g id="_图层_1-2" data-name="图层 1">
        <g>
          <ellipse class="cls-4" cx="44.52" cy="113.94" rx="44.52" ry="19.65"/>
          <g>
            <g>
              <path class="cls-1" d="M33.03,66.1c5.99-2.58,13.61,1.65,22.98,6.12,9.36,4.48,30.42,14.84,51.38-4.04.77-.69,2.47-2.23.37-1.33-4.16,1.77-17.04,3.07-28.22-6.04-19.76-16.1-27.38-14.85-33.57-9.97,0,0,6.44-9.13-1.67-20.22C33.17,15.39,30.09,5.95,34.3.58c1.99-2.54-15.33,2.91-12.85,23.81,2.12,17.88,13.14,28.48,7,36.81-2.78,3.77-.57,7.12,4.59,4.9Z"/>
              <path class="cls-3" d="M33.44,1.63c-4.2,5.37-1.13,14.81,10,30.03,8.11,11.08,1.67,20.22,1.67,20.22,6.18-4.87,13.81-6.13,33.57,9.97,11.18,9.12,24.06,7.81,28.22,6.04.72-.31.99-.32,1.01-.19.77-.72,1.55-1.58-.15-.86-4.16,1.77-17.04,3.07-28.22-6.04-19.76-16.1-27.38-14.85-33.57-9.97,0,0,6.44-9.13-1.67-20.22C33.17,15.39,30.09,5.95,34.3.58c1.17-1.49-4.32-.23-8.55,5.3C29.82,1.24,34.53.24,33.44,1.63Z"/>
              <path class="cls-3" d="M108.72,66.59c-20.71,18.42-41.4,8.27-50.63,3.87-9.26-4.41-16.79-8.58-22.73-6.02-5.11,2.2-7.29-1.11-4.53-4.84,6.1-8.25-4.8-18.72-6.86-36.41C22.36,9.44,29.4,2.44,33.73.03c-3.02.47-14.31,7.21-12.28,24.36,2.12,17.88,13.14,28.48,7,36.81-2.78,3.77-.57,7.12,4.59,4.9,5.99-2.58,13.61,1.65,22.98,6.12,9.36,4.48,30.42,14.84,51.38-4.04.55-.5,1.59-1.43,1.33-1.58Z"/>
            </g>
            <g>
              <path class="cls-2" d="M39.6,53.71c7.49-2.85,5.56,2.36,1.1,5.76-16.1,12.28-19.37,34.72-11.8,53.16,3.72,9.06-27.19,13.2-28.18-1.09-1.63-23.59,15.95-49.11,38.88-57.84Z"/>
              <path class="cls-3" d="M28.9,112.64c-7.79-18.31-4.21-39.59,11.8-53.16,2.69-2.28,4.3-3.98,4.7-5.11-14.73,8.05-25.05,19.85-29.61,34.75-2.48,8.1-3.16,14.95-1.16,23.28.73,3.04,2.23,5.92,3.86,8.37,3.76-.37,12.81-2.48,10.41-8.12Z"/>
              <path class="cls-3" d="M28.9,112.64c-7.57-18.44-4.21-39.59,11.8-53.16,4.36-3.7,5.87-5.96,4.02-6.51-1.2,4.06-9,9.03-11.83,12.48-8.94,10.89-14.79,24.12-13.57,37.3,1.25,13.51-20.34,16.67-18.16,1.6h0c-.32,2.91-.64,4.44-.44,7.2,1.07,14.36,31.9,10.15,28.18,1.09Z"/>
              <path class="cls-3" d="M30.63,70.4c-4.19,6.83-6.91,14.39-8.19,22.14-1.56,9.47-.48,16.91,3.28,26.22,3-1.46,4.4-3.45,3.18-6.12-7.6-16.6-4.73-35.15,8.14-49.61-2.4,2.21-4.76,4.68-6.41,7.38Z"/>
            </g>
          </g>
        </g>
      </g>
    </g>
  </g>
</svg>