<?xml version="1.0" encoding="UTF-8"?>
<svg id="_图层_2" data-name="图层 2" xmlns="http://www.w3.org/2000/svg" viewBox="0 0 228.84 166.98">
  <defs>
    <style>
      .cls-1 {
        fill: #6b676e;
      }

      .cls-1, .cls-2, .cls-3, .cls-4, .cls-5 {
        stroke-width: 0px;
      }

      .cls-2 {
        fill: #585661;
      }

      .cls-6 {
        opacity: .9;
      }

      .cls-3 {
        fill: #2d7687;
      }

      .cls-4 {
        fill: #f0ebe1;
      }

      .cls-7 {
        opacity: .38;
      }

      .cls-5 {
        fill: #fff;
      }
    </style>
  </defs>
  <g id="_图层_1-2" data-name="图层 1">
    <g>
      <path class="cls-5" d="M168.54,13.95c3.96,1.41.08,5.58-3.26,3.33-2.56-1.72-3.45-2.62-4.91-2.4-.39,2.19.41,6.3-.8,7.99-1.96-4.48-4.39-9.25-9.78-5.55-2.05,1.41-3.46,4.65-6.55,4.4-4.52-.36-3.34-5.14-.36-6.6-2.18,1.08-5.59,3.44-6.57.52-1.04-3.09,3.88-4.34,6.13-5.09-1.87-4.54-1.1-7.8,3.98-9.78,4.18-1.63,6.64-.74,7.44,3.24,3.96-.65,7.35-4,11.47-1.62,2.33,1.35,3.6,4.08,1.57,6.29,1.43.84,6.94-.22,6.26,3.51-.29,1.6-3.36,2.19-4.63,1.74Z"/>
      <g class="cls-7">
        <path class="cls-3" d="M152.82,121.97s24.65-9.78,32.28-13.26c10.1-4.61,7.95-7.59,7.95-7.59-.65-1.94-11.15-10.46-22.45-12.23-9.25-1.45-22.9-1.18-35.99,2.16-10.91,2.79-15.23-11.72-26.29-15.88-4.29-1.61-9.76-.75-7.08,2.37,2.68,3.11,14.95,16.28,7.42,22.19-7.53,5.91-29.27,14.41-48.45,43.34,0,0-10.06-.38-11.79,3.94-.48,1.19,6.94,5.08,6.94,5.08,0,0-1.87,10.08-.27,14.89.06.19,8.53-7.17,8.08-15.04-.19-3.32,21.68-16.46,40.97-18.63,20.43-2.31,32.15-5.81,32.15-5.81"/>
        <g>
          <path class="cls-3" d="M169.59,101.55c-2.43-2.37-9.59-4.5-21.1-.35,0,0,3.77,4.09,9.3,4.29,5.53.21,11.79-3.94,11.79-3.94Z"/>
          <path class="cls-3" d="M148.97,123.25l3.84-1.29s24.65-9.78,32.28-13.26c8.08-3.69,8.32-6.33,8.09-7.24-13.52,5.47-35.9,2.85-44.21,21.79Z"/>
        </g>
        <path class="cls-3" d="M135.81,122.85s3.08,16.94,4.95,17.96c1.87,1.02,14.13-17.24,12.93-24.06-.8-4.54-14.72.12-17.88,6.11Z"/>
        <path class="cls-3" d="M127.93,129.52c-9.84-5.68-22.61-6.35-29.89-3.91-9.28,3.1-13.18,6.87-5.48,6.77,4.57-.06,9.96-.39,14.53.58,8.84-1.09,15.89-2.38,20.83-3.43Z"/>
        <path class="cls-3" d="M110.57,109.08c55.79-26.06,82.62-7.62,82.62-7.62h0c-.06-.23-.14-.35-.14-.35-.65-1.94-11.15-10.46-22.45-12.23-9.25-1.45-22.9-1.18-35.99,2.16-10.91,2.79-15.23-11.72-26.29-15.88-4.29-1.61-9.76-.75-7.08,2.37s14.95,16.28,7.42,22.19c-7.53,5.91-29.27,14.41-48.45,43.34,10.92,1.15,10.22-15.23,50.35-33.98Z"/>
      </g>
      <g class="cls-6">
        <path class="cls-2" d="M164.98,84.42s38.95-15.45,51-20.95c15.95-7.28,12.56-12,12.56-12-1.03-3.07-17.61-16.53-35.47-19.33-14.62-2.29-36.19-1.87-56.87,3.42-17.23,4.41-24.06-18.52-41.54-25.1-6.78-2.55-15.41-1.18-11.18,3.74,4.23,4.92,23.62,25.73,11.72,35.07-11.9,9.34-46.25,22.77-76.55,68.48,0,0-15.89-.6-18.63,6.23-.75,1.88,10.97,8.03,10.97,8.03,0,0-2.96,15.93-.42,23.53.1.29,13.48-11.33,12.77-23.76-.3-5.25,34.25-26,64.74-29.44,32.27-3.64,50.79-9.19,50.79-9.19"/>
        <g>
          <path class="cls-4" d="M191.48,52.17c-3.84-3.75-15.15-7.12-33.33-.55,0,0,5.96,6.46,14.7,6.78,8.74.33,18.63-6.23,18.63-6.23Z"/>
          <path class="cls-4" d="M158.9,86.45l6.07-2.03s38.95-15.45,51-20.95c12.76-5.83,13.14-10,12.78-11.44-21.36,8.65-56.72,4.51-69.86,34.42Z"/>
        </g>
        <path class="cls-1" d="M138.11,85.81s4.86,26.76,7.82,28.37c2.96,1.61,22.33-27.24,20.43-38.02-1.26-7.17-23.26.19-28.25,9.65Z"/>
        <path class="cls-4" d="M125.65,96.36c-15.55-8.98-35.73-10.03-47.23-6.18-14.67,4.9-20.83,10.86-8.66,10.69,7.23-.1,15.73-.62,22.97.91,13.97-1.72,25.1-3.75,32.92-5.42Z"/>
        <path class="cls-1" d="M98.22,64.06c88.15-41.17,130.54-12.03,130.54-12.03h0c-.09-.36-.22-.56-.22-.56-1.03-3.07-17.61-16.53-35.47-19.33-14.62-2.29-36.19-1.87-56.87,3.42-17.23,4.41-24.06-18.52-41.54-25.1-6.78-2.55-15.41-1.18-11.18,3.74s23.62,25.73,11.72,35.07c-11.9,9.34-46.25,22.77-76.55,68.48,17.25,1.82,16.15-24.07,79.55-53.68Z"/>
      </g>
    </g>
  </g>
</svg>