<svg width="206" height="83" viewBox="0 0 206 83" fill="none" xmlns="http://www.w3.org/2000/svg">
<rect x="23" width="160" height="65" rx="32.5" fill="#F9F9F9"/>
<path d="M53.96 24.864C56.04 24.864 57.568 25.328 58.544 26.256C59.52 27.184 60.008 28.464 60.008 30.096C60.008 30.832 59.904 31.536 59.696 32.208C59.488 32.864 59.136 33.456 58.64 33.984C58.16 34.512 57.52 34.928 56.72 35.232C55.92 35.536 54.936 35.688 53.768 35.688H52.232V42H49.016V24.864H53.96ZM53.84 27.408H52.232V33.144H53.432C54.136 33.144 54.736 33.048 55.232 32.856C55.728 32.648 56.104 32.328 56.36 31.896C56.632 31.464 56.768 30.904 56.768 30.216C56.768 29.272 56.528 28.568 56.048 28.104C55.568 27.64 54.832 27.408 53.84 27.408ZM65.9591 28.104C65.9591 28.616 65.9351 29.12 65.8871 29.616C65.8551 30.096 65.8231 30.456 65.7911 30.696H65.9831C66.2391 30.248 66.5431 29.888 66.8951 29.616C67.2631 29.328 67.6711 29.112 68.1191 28.968C68.5831 28.824 69.0631 28.752 69.5591 28.752C70.4711 28.752 71.2551 28.92 71.9111 29.256C72.5671 29.592 73.0791 30.112 73.4471 30.816C73.8151 31.504 73.9991 32.408 73.9991 33.528V42H70.8071V34.128C70.8071 33.136 70.6391 32.4 70.3031 31.92C69.9671 31.44 69.4391 31.2 68.7191 31.2C68.0311 31.2 67.4791 31.376 67.0631 31.728C66.6471 32.064 66.3591 32.568 66.1991 33.24C66.0391 33.896 65.9591 34.704 65.9591 35.664V42H62.7671V23.76H65.9591V28.104ZM82.6001 28.752C84.1681 28.752 85.3681 29.12 86.2001 29.856C87.0321 30.576 87.4481 31.712 87.4481 33.264V42H85.2161L84.5921 40.2H84.4961C84.1441 40.664 83.7841 41.056 83.4161 41.376C83.0481 41.68 82.6241 41.896 82.1441 42.024C81.6641 42.168 81.0881 42.24 80.4161 42.24C79.6961 42.24 79.0481 42.096 78.4721 41.808C77.8961 41.52 77.4401 41.08 77.1041 40.488C76.7681 39.88 76.6001 39.12 76.6001 38.208C76.6001 36.864 77.0641 35.856 77.9921 35.184C78.9201 34.496 80.3121 34.12 82.1681 34.056L84.2561 33.984V33.336C84.2561 32.504 84.0801 31.912 83.7281 31.56C83.3761 31.208 82.8961 31.032 82.2881 31.032C81.7121 31.032 81.1281 31.128 80.5361 31.32C79.9601 31.512 79.3921 31.736 78.8321 31.992L77.8481 29.88C78.5041 29.544 79.2321 29.272 80.0321 29.064C80.8321 28.856 81.6881 28.752 82.6001 28.752ZM82.9121 35.904C81.7761 35.952 80.9841 36.184 80.5361 36.6C80.0881 37 79.8641 37.544 79.8641 38.232C79.8641 38.84 80.0161 39.28 80.3201 39.552C80.6401 39.824 81.0561 39.96 81.5681 39.96C82.3201 39.96 82.9601 39.712 83.4881 39.216C84.0161 38.704 84.2801 37.952 84.2801 36.96V35.856L82.9121 35.904ZM97.4698 28.752C97.6938 28.752 97.9258 28.76 98.1658 28.776C98.4058 28.792 98.6058 28.824 98.7658 28.872L98.4778 31.68C98.3178 31.648 98.1258 31.624 97.9018 31.608C97.6938 31.576 97.4698 31.56 97.2298 31.56C96.8298 31.56 96.4378 31.64 96.0538 31.8C95.6698 31.944 95.3258 32.168 95.0218 32.472C94.7178 32.76 94.4698 33.136 94.2778 33.6C94.1018 34.064 94.0138 34.616 94.0138 35.256V42H90.8218V28.992H93.2698L93.7018 31.248H93.8698C94.1098 30.784 94.4058 30.368 94.7578 30C95.1258 29.616 95.5338 29.312 95.9818 29.088C96.4458 28.864 96.9418 28.752 97.4698 28.752ZM115.133 28.752C116.541 28.752 117.597 29.128 118.301 29.88C119.005 30.632 119.357 31.848 119.357 33.528V42H116.213V34.104C116.213 33.144 116.053 32.424 115.733 31.944C115.413 31.448 114.917 31.2 114.245 31.2C113.317 31.2 112.661 31.544 112.277 32.232C111.893 32.92 111.701 33.92 111.701 35.232V42H108.533V34.104C108.533 33.464 108.461 32.928 108.317 32.496C108.173 32.064 107.957 31.744 107.669 31.536C107.381 31.312 107.013 31.2 106.565 31.2C105.925 31.2 105.421 31.376 105.053 31.728C104.685 32.064 104.421 32.56 104.261 33.216C104.117 33.872 104.045 34.68 104.045 35.64V42H100.853V28.992H103.301L103.757 30.696H103.901C104.141 30.248 104.437 29.88 104.789 29.592C105.157 29.304 105.573 29.096 106.037 28.968C106.517 28.824 107.013 28.752 107.525 28.752C108.437 28.752 109.197 28.92 109.805 29.256C110.429 29.576 110.909 30.08 111.245 30.768H111.413C111.813 30.064 112.341 29.552 112.997 29.232C113.669 28.912 114.381 28.752 115.133 28.752ZM127.975 28.752C129.543 28.752 130.743 29.12 131.575 29.856C132.407 30.576 132.823 31.712 132.823 33.264V42H130.591L129.967 40.2H129.871C129.519 40.664 129.159 41.056 128.791 41.376C128.423 41.68 127.999 41.896 127.519 42.024C127.039 42.168 126.463 42.24 125.791 42.24C125.071 42.24 124.423 42.096 123.847 41.808C123.271 41.52 122.815 41.08 122.479 40.488C122.143 39.88 121.975 39.12 121.975 38.208C121.975 36.864 122.439 35.856 123.367 35.184C124.295 34.496 125.687 34.12 127.543 34.056L129.631 33.984V33.336C129.631 32.504 129.455 31.912 129.103 31.56C128.751 31.208 128.271 31.032 127.663 31.032C127.087 31.032 126.503 31.128 125.911 31.32C125.335 31.512 124.767 31.736 124.207 31.992L123.223 29.88C123.879 29.544 124.607 29.272 125.407 29.064C126.207 28.856 127.063 28.752 127.975 28.752ZM128.287 35.904C127.151 35.952 126.359 36.184 125.911 36.6C125.463 37 125.239 37.544 125.239 38.232C125.239 38.84 125.391 39.28 125.695 39.552C126.015 39.824 126.431 39.96 126.943 39.96C127.695 39.96 128.335 39.712 128.863 39.216C129.391 38.704 129.655 37.952 129.655 36.96V35.856L128.287 35.904ZM141.381 42.24C140.181 42.24 139.141 42.008 138.261 41.544C137.397 41.064 136.725 40.336 136.245 39.36C135.781 38.368 135.549 37.104 135.549 35.568C135.549 33.968 135.805 32.672 136.317 31.68C136.845 30.672 137.565 29.936 138.477 29.472C139.405 28.992 140.453 28.752 141.621 28.752C142.357 28.752 143.045 28.832 143.685 28.992C144.341 29.152 144.885 29.344 145.317 29.568L144.357 31.896C143.925 31.72 143.493 31.568 143.061 31.44C142.629 31.312 142.197 31.248 141.765 31.248C141.109 31.248 140.565 31.408 140.133 31.728C139.701 32.048 139.365 32.528 139.125 33.168C138.901 33.792 138.789 34.584 138.789 35.544C138.789 36.472 138.901 37.248 139.125 37.872C139.365 38.496 139.701 38.968 140.133 39.288C140.565 39.592 141.093 39.744 141.717 39.744C142.341 39.744 142.917 39.656 143.445 39.48C143.989 39.304 144.501 39.064 144.981 38.76V41.376C144.485 41.68 143.957 41.896 143.397 42.024C142.837 42.168 142.165 42.24 141.381 42.24ZM146 28.992H149.408L151.736 36.336C151.848 36.64 151.936 36.944 152 37.248C152.08 37.552 152.144 37.856 152.192 38.16C152.256 38.464 152.304 38.768 152.336 39.072H152.408C152.472 38.672 152.552 38.232 152.648 37.752C152.76 37.272 152.888 36.8 153.032 36.336L155.312 28.992H158.672L153.512 43.704C153.208 44.568 152.824 45.304 152.36 45.912C151.912 46.52 151.36 46.976 150.704 47.28C150.064 47.6 149.296 47.76 148.4 47.76C148.032 47.76 147.704 47.736 147.416 47.688C147.144 47.656 146.904 47.616 146.696 47.568V45.168C146.856 45.2 147.056 45.232 147.296 45.264C147.536 45.296 147.784 45.312 148.04 45.312C148.504 45.312 148.896 45.208 149.216 45C149.552 44.808 149.832 44.536 150.056 44.184C150.28 43.848 150.448 43.456 150.56 43.008L150.896 41.952L146 28.992Z" fill="#505050"/>
<path d="M114.75 65H91.25L102.75 82.5L114.75 65Z" fill="#F9F9F9"/>
</svg>
